<?xml version="1.0" encoding="UTF-8"?>
<svg xmlns="http://www.w3.org/2000/svg" xmlns:xlink="http://www.w3.org/1999/xlink" width="375pt" height="374.999991pt" viewBox="0 0 375 374.999991" version="1.2">
<defs>
<clipPath id="clip1">
  <path d="M 57.128906 57.128906 L 318.128906 57.128906 L 318.128906 318.128906 L 57.128906 318.128906 Z M 57.128906 57.128906 "/>
</clipPath>
</defs>
<g id="surface1">
<g clip-path="url(#clip1)" clip-rule="nonzero">
<path style=" stroke:none;fill-rule:evenodd;fill:rgb(21.179199%,46.669006%,63.919067%);fill-opacity:1;" d="M 187.765625 57.128906 C 259.910156 57.128906 318.398438 115.617188 318.398438 187.765625 C 318.398438 259.910156 259.910156 318.398438 187.765625 318.398438 C 115.617188 318.398438 57.128906 259.910156 57.128906 187.765625 C 57.128906 115.617188 115.617188 57.128906 187.765625 57.128906 "/>
</g>
<path style=" stroke:none;fill-rule:evenodd;fill:rgb(100%,100%,100%);fill-opacity:1;" d="M 181.285156 211.316406 C 174.390625 200.75 170.316406 190.183594 168.125 182.351562 C 166.125 183.125 163.75 183.832031 161.175781 184.539062 C 154.675781 198.636719 156.066406 218.675781 161.484375 232.523438 C 165.796875 232.203125 169.457031 235.589844 169.457031 239.882812 C 169.457031 243.960938 166.140625 247.265625 162.050781 247.265625 C 155.503906 247.265625 152.226562 239.417969 156.710938 234.769531 C 151.105469 220.644531 149.527344 201.214844 154.800781 186.242188 C 144.898438 188.914062 134.21875 192.277344 130.667969 199.4375 C 124.234375 212.351562 121.738281 252.785156 121.757812 268.898438 L 253.769531 268.898438 C 253.785156 252.648438 251.375 212.519531 244.859375 199.4375 C 241.527344 192.722656 231.925781 189.34375 222.578125 186.75 C 223.371094 191.914062 222.910156 197.445312 221.636719 202.980469 C 228.292969 205.683594 232.40625 212.335938 231.074219 220.773438 C 229.265625 232.226562 231.761719 252.878906 217.019531 249.578125 C 213.632812 248.820312 214.789062 243.6875 218.175781 244.449219 C 221.507812 245.195312 222.988281 242.9375 223.777344 239.433594 C 224.90625 234.445312 224.921875 225.960938 225.867188 219.972656 C 228.082031 205.960938 209.28125 201.722656 205.261719 215.347656 C 203.5625 221.089844 199.921875 228.78125 198.78125 233.835938 C 197.992188 237.339844 198.359375 240.011719 201.6875 240.757812 C 205.078125 241.515625 203.921875 246.644531 200.53125 245.882812 C 185.808594 242.585938 196.890625 225.058594 200.195312 213.863281 C 202.632812 205.601562 209.304688 201.367188 216.488281 201.808594 C 217.796875 196.136719 218.210938 190.398438 216.890625 185.21875 C 213.34375 184.277344 210.046875 183.375 207.402344 182.351562 C 205.460938 189.445312 200.910156 200.664062 194.109375 211.308594 L 191.683594 197.8125 L 193.496094 193.460938 L 187.699219 188.605469 L 181.902344 193.460938 L 183.710938 197.8125 Z M 219.019531 135.480469 C 220.542969 135.203125 221.960938 135.460938 222.425781 137.128906 C 224.011719 142.792969 218.96875 150.695312 214.292969 150.21875 C 200.765625 184.429688 174.757812 184.429688 161.230469 150.21875 C 156.617188 150.679688 151.511719 142.792969 153.097656 137.128906 C 153.558594 135.464844 154.972656 135.203125 156.492188 135.476562 C 155.128906 129.523438 154.429688 122.160156 155.726562 116.175781 C 161.273438 90.589844 207.054688 86.152344 209.601562 102.519531 C 221.96875 106.632812 222.601562 119.984375 219.019531 135.480469 Z M 219.019531 135.480469 "/>
</g>
</svg>
