<?xml version="1.0" encoding="UTF-8"?>
<svg xmlns="http://www.w3.org/2000/svg" xmlns:xlink="http://www.w3.org/1999/xlink" width="375pt" height="374.999991pt" viewBox="0 0 375 374.999991" version="1.2">
<defs>
<clipPath id="clip1">
  <path d="M 90 67.332031 L 284 67.332031 L 284 307.003906 L 90 307.003906 Z M 90 67.332031 "/>
</clipPath>
</defs>
<g id="surface1">
<g clip-path="url(#clip1)" clip-rule="nonzero">
<path style=" stroke:none;fill-rule:nonzero;fill:rgb(87.449646%,90.979004%,95.689392%);fill-opacity:1;" d="M 256.28125 67.332031 C 257.175781 67.332031 258.0625 67.375 258.949219 67.464844 C 259.835938 67.550781 260.71875 67.679688 261.589844 67.855469 C 262.464844 68.027344 263.328125 68.246094 264.183594 68.503906 C 265.035156 68.761719 265.875 69.0625 266.695312 69.402344 C 267.519531 69.746094 268.324219 70.125 269.109375 70.546875 C 269.898438 70.964844 270.660156 71.421875 271.402344 71.917969 C 272.140625 72.414062 272.855469 72.945312 273.546875 73.507812 C 274.234375 74.074219 274.894531 74.671875 275.523438 75.304688 C 276.15625 75.933594 276.753906 76.59375 277.316406 77.28125 C 277.882812 77.96875 278.414062 78.6875 278.910156 79.425781 C 279.402344 80.167969 279.863281 80.929688 280.28125 81.71875 C 280.703125 82.503906 281.082031 83.308594 281.421875 84.132812 C 281.765625 84.953125 282.0625 85.792969 282.324219 86.644531 C 282.582031 87.5 282.796875 88.363281 282.972656 89.238281 C 283.144531 90.109375 283.277344 90.992188 283.363281 91.878906 C 283.453125 92.765625 283.496094 93.652344 283.496094 94.546875 L 283.496094 279.792969 C 283.496094 280.683594 283.453125 281.574219 283.363281 282.460938 C 283.277344 283.347656 283.144531 284.226562 282.972656 285.101562 C 282.796875 285.976562 282.582031 286.839844 282.324219 287.691406 C 282.0625 288.542969 281.765625 289.382812 281.421875 290.207031 C 281.082031 291.03125 280.703125 291.835938 280.28125 292.621094 C 279.863281 293.40625 279.402344 294.167969 278.910156 294.910156 C 278.414062 295.652344 277.882812 296.367188 277.316406 297.054688 C 276.753906 297.746094 276.15625 298.402344 275.523438 299.035156 C 274.894531 299.664062 274.234375 300.261719 273.546875 300.828125 C 272.855469 301.394531 272.140625 301.921875 271.402344 302.417969 C 270.660156 302.914062 269.898438 303.371094 269.109375 303.792969 C 268.324219 304.210938 267.519531 304.59375 266.695312 304.933594 C 265.875 305.273438 265.035156 305.574219 264.183594 305.832031 C 263.328125 306.09375 262.464844 306.308594 261.589844 306.480469 C 260.71875 306.65625 259.835938 306.785156 258.949219 306.875 C 258.0625 306.960938 257.175781 307.003906 256.28125 307.003906 L 117.675781 307.003906 C 116.785156 307.003906 115.894531 306.960938 115.007812 306.875 C 114.121094 306.785156 113.242188 306.65625 112.367188 306.480469 C 111.492188 306.308594 110.628906 306.09375 109.777344 305.832031 C 108.925781 305.574219 108.085938 305.273438 107.261719 304.933594 C 106.441406 304.59375 105.636719 304.210938 104.847656 303.792969 C 104.0625 303.371094 103.300781 302.914062 102.558594 302.417969 C 101.816406 301.921875 101.101562 301.394531 100.414062 300.828125 C 99.722656 300.261719 99.066406 299.664062 98.433594 299.035156 C 97.804688 298.402344 97.207031 297.746094 96.640625 297.054688 C 96.074219 296.367188 95.546875 295.652344 95.050781 294.910156 C 94.554688 294.167969 94.097656 293.40625 93.679688 292.621094 C 93.257812 291.835938 92.878906 291.03125 92.535156 290.207031 C 92.195312 289.382812 91.894531 288.542969 91.636719 287.691406 C 91.378906 286.839844 91.160156 285.976562 90.988281 285.101562 C 90.8125 284.226562 90.683594 283.347656 90.59375 282.460938 C 90.507812 281.574219 90.464844 280.683594 90.464844 279.792969 L 90.464844 126.703125 C 90.460938 125.070312 90.769531 123.503906 91.394531 122 C 92.015625 120.492188 92.90625 119.164062 94.058594 118.011719 L 141.144531 70.925781 C 142.292969 69.773438 143.621094 68.886719 145.128906 68.261719 C 146.632812 67.640625 148.203125 67.328125 149.832031 67.332031 Z M 256.28125 67.332031 "/>
</g>
<path style=" stroke:none;fill-rule:nonzero;fill:rgb(79.998779%,84.709167%,89.7995%);fill-opacity:1;" d="M 141.144531 70.925781 C 142.1875 69.886719 143.386719 69.070312 144.738281 68.480469 L 144.738281 95.742188 C 144.738281 96.914062 144.679688 98.082031 144.566406 99.246094 C 144.453125 100.414062 144.28125 101.570312 144.050781 102.71875 C 143.824219 103.867188 143.539062 105 143.199219 106.121094 C 142.859375 107.242188 142.464844 108.34375 142.015625 109.425781 C 141.570312 110.507812 141.070312 111.5625 140.515625 112.597656 C 139.964844 113.628906 139.363281 114.632812 138.714844 115.605469 C 138.0625 116.578125 137.367188 117.519531 136.625 118.425781 C 135.882812 119.328125 135.09375 120.195312 134.269531 121.023438 C 133.441406 121.851562 132.574219 122.636719 131.667969 123.378906 C 130.761719 124.121094 129.824219 124.820312 128.851562 125.46875 C 127.875 126.121094 126.875 126.722656 125.839844 127.273438 C 124.808594 127.824219 123.75 128.324219 122.667969 128.773438 C 121.589844 129.222656 120.488281 129.617188 119.367188 129.957031 C 118.246094 130.296875 117.113281 130.578125 115.964844 130.808594 C 114.816406 131.035156 113.65625 131.207031 112.492188 131.324219 C 111.328125 131.4375 110.160156 131.496094 108.988281 131.496094 L 90.464844 131.496094 L 90.464844 126.5 C 90.460938 124.871094 90.769531 123.304688 91.394531 121.796875 C 92.015625 120.292969 92.90625 118.964844 94.058594 117.8125 Z M 141.144531 70.925781 "/>
<path style=" stroke:none;fill-rule:nonzero;fill:rgb(2.749634%,58.428955%,100%);fill-opacity:1;" d="M 91.613281 121.609375 C 92.203125 120.257812 93.019531 119.058594 94.058594 118.011719 L 141.144531 70.925781 C 142.1875 69.886719 143.386719 69.070312 144.738281 68.480469 L 144.738281 94.394531 C 144.738281 95.285156 144.695312 96.175781 144.609375 97.0625 C 144.519531 97.949219 144.390625 98.832031 144.214844 99.703125 C 144.042969 100.578125 143.824219 101.441406 143.566406 102.296875 C 143.308594 103.148438 143.007812 103.984375 142.667969 104.808594 C 142.328125 105.632812 141.945312 106.4375 141.527344 107.222656 C 141.105469 108.007812 140.648438 108.773438 140.152344 109.515625 C 139.65625 110.253906 139.128906 110.96875 138.5625 111.660156 C 137.996094 112.347656 137.398438 113.007812 136.769531 113.636719 C 136.136719 114.269531 135.480469 114.867188 134.789062 115.429688 C 134.101562 115.996094 133.386719 116.527344 132.644531 117.023438 C 131.902344 117.515625 131.140625 117.976562 130.355469 118.394531 C 129.570312 118.816406 128.765625 119.195312 127.941406 119.535156 C 127.117188 119.878906 126.277344 120.179688 125.425781 120.4375 C 124.574219 120.695312 123.710938 120.910156 122.835938 121.085938 C 121.960938 121.257812 121.082031 121.390625 120.195312 121.476562 C 119.308594 121.566406 118.417969 121.609375 117.527344 121.609375 Z M 91.613281 121.609375 "/>
<path style=" stroke:none;fill-rule:nonzero;fill:rgb(100%,100%,100%);fill-opacity:1;" d="M 138 243.992188 L 236.011719 243.992188 C 236.382812 243.992188 236.738281 244.0625 237.082031 244.203125 C 237.421875 244.347656 237.726562 244.546875 237.988281 244.808594 C 238.25 245.070312 238.453125 245.375 238.59375 245.71875 C 238.734375 246.058594 238.808594 246.417969 238.808594 246.789062 L 238.808594 254.925781 C 238.808594 255.296875 238.734375 255.652344 238.59375 255.996094 C 238.453125 256.339844 238.25 256.640625 237.988281 256.902344 C 237.726562 257.164062 237.421875 257.367188 237.082031 257.507812 C 236.738281 257.652344 236.382812 257.722656 236.011719 257.722656 L 138 257.722656 C 137.628906 257.722656 137.269531 257.652344 136.929688 257.507812 C 136.585938 257.367188 136.28125 257.164062 136.019531 256.902344 C 135.757812 256.640625 135.558594 256.339844 135.414062 255.996094 C 135.273438 255.652344 135.203125 255.296875 135.203125 254.925781 L 135.203125 246.789062 C 135.203125 246.417969 135.273438 246.058594 135.414062 245.71875 C 135.558594 245.375 135.757812 245.070312 136.019531 244.808594 C 136.28125 244.546875 136.585938 244.347656 136.929688 244.203125 C 137.269531 244.0625 137.628906 243.992188 138 243.992188 Z M 138 243.992188 "/>
<path style=" stroke:none;fill-rule:nonzero;fill:rgb(2.749634%,58.428955%,100%);fill-opacity:1;" d="M 183.632812 163.050781 L 190.324219 163.050781 C 190.597656 163.050781 190.867188 163.078125 191.132812 163.132812 C 191.402344 163.183594 191.660156 163.261719 191.910156 163.367188 C 192.164062 163.472656 192.402344 163.597656 192.628906 163.75 C 192.855469 163.902344 193.0625 164.074219 193.253906 164.265625 C 193.449219 164.457031 193.621094 164.667969 193.769531 164.894531 C 193.921875 165.121094 194.050781 165.359375 194.152344 165.609375 C 194.257812 165.863281 194.335938 166.121094 194.390625 166.386719 C 194.441406 166.65625 194.46875 166.925781 194.46875 167.195312 L 194.46875 230.058594 C 194.46875 230.332031 194.441406 230.601562 194.390625 230.867188 C 194.335938 231.136719 194.257812 231.394531 194.152344 231.644531 C 194.050781 231.898438 193.921875 232.136719 193.769531 232.363281 C 193.621094 232.589844 193.449219 232.796875 193.253906 232.992188 C 193.0625 233.183594 192.855469 233.355469 192.628906 233.507812 C 192.402344 233.65625 192.164062 233.785156 191.910156 233.890625 C 191.660156 233.992188 191.402344 234.070312 191.132812 234.125 C 190.867188 234.179688 190.597656 234.203125 190.324219 234.203125 L 183.632812 234.203125 C 183.363281 234.203125 183.09375 234.179688 182.824219 234.125 C 182.558594 234.070312 182.300781 233.992188 182.046875 233.890625 C 181.796875 233.785156 181.558594 233.65625 181.332031 233.507812 C 181.105469 233.355469 180.894531 233.183594 180.703125 232.992188 C 180.511719 232.796875 180.339844 232.589844 180.1875 232.363281 C 180.039062 232.136719 179.910156 231.898438 179.804688 231.644531 C 179.703125 231.394531 179.621094 231.136719 179.570312 230.867188 C 179.515625 230.601562 179.488281 230.332031 179.488281 230.058594 L 179.488281 167.195312 C 179.488281 166.925781 179.515625 166.65625 179.570312 166.386719 C 179.621094 166.121094 179.703125 165.863281 179.804688 165.609375 C 179.910156 165.359375 180.039062 165.121094 180.1875 164.894531 C 180.339844 164.667969 180.511719 164.457031 180.703125 164.265625 C 180.894531 164.074219 181.105469 163.902344 181.332031 163.75 C 181.558594 163.597656 181.796875 163.472656 182.046875 163.367188 C 182.300781 163.261719 182.558594 163.183594 182.824219 163.132812 C 183.09375 163.078125 183.363281 163.050781 183.632812 163.050781 Z M 183.632812 163.050781 "/>
<path style=" stroke:none;fill-rule:nonzero;fill:rgb(2.749634%,58.428955%,100%);fill-opacity:1;" d="M 205.304688 192.160156 L 186.980469 173.636719 L 168.65625 192.160156 C 168.351562 192.472656 167.996094 192.714844 167.59375 192.886719 C 167.191406 193.054688 166.769531 193.140625 166.332031 193.140625 C 165.898438 193.140625 165.476562 193.054688 165.074219 192.886719 C 164.671875 192.714844 164.316406 192.472656 164.011719 192.160156 L 158.070312 186.21875 C 157.757812 185.914062 157.515625 185.5625 157.347656 185.15625 C 157.175781 184.753906 157.09375 184.335938 157.09375 183.898438 C 157.09375 183.460938 157.175781 183.042969 157.347656 182.636719 C 157.515625 182.234375 157.757812 181.882812 158.070312 181.578125 L 185.433594 154.214844 C 185.636719 154.007812 185.875 153.851562 186.144531 153.742188 C 186.410156 153.632812 186.691406 153.574219 186.980469 153.574219 C 187.269531 153.574219 187.546875 153.632812 187.816406 153.742188 C 188.085938 153.851562 188.320312 154.007812 188.527344 154.214844 L 215.890625 181.578125 C 216.203125 181.882812 216.441406 182.234375 216.613281 182.636719 C 216.78125 183.042969 216.867188 183.460938 216.867188 183.898438 C 216.867188 184.335938 216.78125 184.753906 216.613281 185.15625 C 216.441406 185.5625 216.203125 185.914062 215.890625 186.21875 L 209.949219 192.160156 C 209.640625 192.472656 209.289062 192.714844 208.886719 192.886719 C 208.484375 193.054688 208.0625 193.140625 207.625 193.140625 C 207.1875 193.140625 206.769531 193.054688 206.367188 192.886719 C 205.964844 192.714844 205.609375 192.472656 205.304688 192.160156 Z M 205.304688 192.160156 "/>
</g>
</svg>
