<?xml version="1.0" encoding="UTF-8"?>
<svg xmlns="http://www.w3.org/2000/svg" xmlns:xlink="http://www.w3.org/1999/xlink" width="375pt" height="374.999991pt" viewBox="0 0 375 374.999991" version="1.2">
<defs>
<clipPath id="clip1">
  <path d="M 143 252 L 232 252 L 232 305.480469 L 143 305.480469 Z M 143 252 "/>
</clipPath>
<clipPath id="clip2">
  <path d="M 143 279 L 232 279 L 232 305.480469 L 143 305.480469 Z M 143 279 "/>
</clipPath>
<clipPath id="clip3">
  <path d="M 69.324219 94 L 305.480469 94 L 305.480469 263 L 69.324219 263 Z M 69.324219 94 "/>
</clipPath>
<clipPath id="clip4">
  <path d="M 69.324219 233 L 305.480469 233 L 305.480469 262 L 69.324219 262 Z M 69.324219 233 "/>
</clipPath>
<clipPath id="clip5">
  <path d="M 69.324219 228 L 305.480469 228 L 305.480469 234 L 69.324219 234 Z M 69.324219 228 "/>
</clipPath>
<clipPath id="clip6">
  <path d="M 163 69.324219 L 211 69.324219 L 211 117 L 163 117 Z M 163 69.324219 "/>
</clipPath>
</defs>
<g id="surface1">
<g clip-path="url(#clip1)" clip-rule="nonzero">
<path style=" stroke:none;fill-rule:nonzero;fill:rgb(8.239746%,42.349243%,86.669922%);fill-opacity:1;" d="M 214.214844 279.257812 C 213.488281 279.257812 212.769531 279.183594 212.058594 279.042969 C 211.347656 278.902344 210.65625 278.691406 209.984375 278.414062 C 209.316406 278.132812 208.679688 277.792969 208.078125 277.386719 C 207.472656 276.984375 206.917969 276.523438 206.40625 276.011719 C 205.890625 275.496094 205.4375 274.9375 205.035156 274.332031 C 204.632812 273.726562 204.292969 273.089844 204.019531 272.417969 C 203.742188 271.746094 203.535156 271.054688 203.398438 270.34375 C 203.257812 269.632812 203.191406 268.910156 203.195312 268.1875 L 203.195312 252.195312 L 171.609375 252.195312 L 171.609375 268.1875 C 171.613281 268.910156 171.542969 269.632812 171.40625 270.34375 C 171.265625 271.054688 171.058594 271.746094 170.785156 272.417969 C 170.507812 273.089844 170.167969 273.726562 169.769531 274.332031 C 169.367188 274.9375 168.910156 275.496094 168.398438 276.011719 C 167.886719 276.523438 167.328125 276.984375 166.726562 277.386719 C 166.121094 277.792969 165.488281 278.132812 164.816406 278.414062 C 164.144531 278.691406 163.457031 278.902344 162.742188 279.042969 C 162.03125 279.183594 161.3125 279.257812 160.585938 279.257812 C 160.015625 279.257812 159.445312 279.285156 158.875 279.339844 C 158.304688 279.394531 157.742188 279.480469 157.179688 279.589844 C 156.621094 279.703125 156.066406 279.84375 155.515625 280.007812 C 154.96875 280.175781 154.433594 280.367188 153.902344 280.585938 C 153.375 280.804688 152.859375 281.046875 152.355469 281.320312 C 151.851562 281.589844 151.359375 281.882812 150.882812 282.199219 C 150.410156 282.515625 149.949219 282.859375 149.507812 283.21875 C 149.066406 283.582031 148.640625 283.96875 148.238281 284.371094 C 147.832031 284.777344 147.449219 285.199219 147.085938 285.640625 C 146.722656 286.082031 146.382812 286.542969 146.066406 287.019531 C 145.746094 287.492188 145.453125 287.984375 145.183594 288.488281 C 144.914062 288.992188 144.671875 289.507812 144.453125 290.039062 C 144.234375 290.566406 144.039062 291.105469 143.875 291.652344 C 143.707031 292.199219 143.570312 292.753906 143.457031 293.3125 C 143.347656 293.875 143.261719 294.441406 143.207031 295.011719 C 143.148438 295.578125 143.121094 296.148438 143.121094 296.722656 C 143.125 297.296875 143.183594 297.867188 143.300781 298.433594 C 143.414062 298.996094 143.582031 299.546875 143.804688 300.078125 C 144.027344 300.609375 144.300781 301.113281 144.621094 301.589844 C 144.945312 302.070312 145.308594 302.511719 145.71875 302.917969 C 146.128906 303.324219 146.570312 303.6875 147.050781 304.003906 C 147.53125 304.324219 148.035156 304.59375 148.570312 304.8125 C 149.101562 305.035156 149.652344 305.199219 150.214844 305.3125 C 150.78125 305.421875 151.351562 305.480469 151.929688 305.480469 L 222.875 305.480469 C 223.449219 305.480469 224.019531 305.421875 224.585938 305.3125 C 225.152344 305.199219 225.699219 305.035156 226.234375 304.8125 C 226.765625 304.59375 227.269531 304.324219 227.75 304.003906 C 228.230469 303.6875 228.675781 303.324219 229.082031 302.917969 C 229.492188 302.511719 229.859375 302.070312 230.179688 301.589844 C 230.5 301.113281 230.773438 300.609375 230.996094 300.078125 C 231.21875 299.546875 231.386719 298.996094 231.503906 298.433594 C 231.617188 297.867188 231.675781 297.296875 231.679688 296.722656 C 231.679688 296.148438 231.652344 295.578125 231.597656 295.011719 C 231.539062 294.441406 231.457031 293.875 231.34375 293.3125 C 231.234375 292.753906 231.09375 292.199219 230.929688 291.652344 C 230.761719 291.105469 230.570312 290.566406 230.351562 290.039062 C 230.132812 289.507812 229.886719 288.992188 229.617188 288.488281 C 229.347656 287.984375 229.054688 287.492188 228.738281 287.019531 C 228.417969 286.542969 228.078125 286.082031 227.714844 285.640625 C 227.351562 285.199219 226.96875 284.777344 226.566406 284.371094 C 226.160156 283.96875 225.738281 283.582031 225.292969 283.21875 C 224.851562 282.859375 224.394531 282.515625 223.917969 282.199219 C 223.441406 281.882812 222.953125 281.589844 222.449219 281.316406 C 221.945312 281.046875 221.425781 280.804688 220.898438 280.585938 C 220.371094 280.367188 219.832031 280.175781 219.285156 280.007812 C 218.738281 279.84375 218.183594 279.703125 217.621094 279.589844 C 217.0625 279.480469 216.496094 279.394531 215.925781 279.339844 C 215.355469 279.285156 214.785156 279.257812 214.214844 279.257812 Z M 214.214844 279.257812 "/>
</g>
<g clip-path="url(#clip2)" clip-rule="nonzero">
<path style=" stroke:none;fill-rule:nonzero;fill:rgb(2.749634%,58.428955%,100%);fill-opacity:1;" d="M 220.808594 279.257812 L 153.996094 279.257812 C 153.28125 279.253906 152.574219 279.320312 151.875 279.457031 C 151.175781 279.59375 150.496094 279.796875 149.835938 280.066406 C 149.179688 280.335938 148.550781 280.667969 147.957031 281.0625 C 147.363281 281.457031 146.816406 281.90625 146.308594 282.410156 C 145.804688 282.910156 145.351562 283.460938 144.957031 284.050781 C 144.558594 284.644531 144.222656 285.269531 143.949219 285.925781 C 143.675781 286.585938 143.46875 287.261719 143.332031 287.960938 C 143.191406 288.660156 143.121094 289.367188 143.121094 290.078125 L 143.121094 296.722656 C 143.125 297.296875 143.183594 297.867188 143.300781 298.433594 C 143.414062 298.996094 143.582031 299.546875 143.804688 300.078125 C 144.027344 300.609375 144.300781 301.113281 144.621094 301.589844 C 144.945312 302.070312 145.308594 302.511719 145.71875 302.917969 C 146.128906 303.324219 146.570312 303.6875 147.050781 304.003906 C 147.53125 304.324219 148.035156 304.59375 148.570312 304.8125 C 149.101562 305.035156 149.652344 305.199219 150.214844 305.3125 C 150.78125 305.421875 151.351562 305.480469 151.929688 305.480469 L 222.875 305.480469 C 223.449219 305.480469 224.019531 305.421875 224.585938 305.3125 C 225.152344 305.199219 225.699219 305.035156 226.234375 304.8125 C 226.765625 304.59375 227.269531 304.324219 227.75 304.003906 C 228.230469 303.6875 228.675781 303.324219 229.082031 302.917969 C 229.492188 302.511719 229.859375 302.070312 230.179688 301.589844 C 230.5 301.113281 230.773438 300.609375 230.996094 300.078125 C 231.21875 299.546875 231.386719 298.996094 231.503906 298.433594 C 231.617188 297.867188 231.675781 297.296875 231.679688 296.722656 L 231.679688 290.078125 C 231.679688 289.367188 231.609375 288.660156 231.472656 287.960938 C 231.332031 287.261719 231.125 286.585938 230.851562 285.925781 C 230.578125 285.269531 230.242188 284.644531 229.847656 284.050781 C 229.449219 283.460938 228.996094 282.910156 228.492188 282.410156 C 227.988281 281.90625 227.4375 281.457031 226.84375 281.0625 C 226.25 280.667969 225.625 280.335938 224.964844 280.066406 C 224.304688 279.796875 223.625 279.59375 222.925781 279.457031 C 222.226562 279.320312 221.519531 279.253906 220.808594 279.257812 Z M 220.808594 279.257812 "/>
</g>
<g clip-path="url(#clip3)" clip-rule="nonzero">
<path style=" stroke:none;fill-rule:nonzero;fill:rgb(87.449646%,90.979004%,95.689392%);fill-opacity:1;" d="M 89.199219 94.757812 L 285.601562 94.757812 C 286.253906 94.757812 286.902344 94.789062 287.550781 94.855469 C 288.199219 94.917969 288.84375 95.015625 289.480469 95.140625 C 290.117188 95.269531 290.75 95.425781 291.371094 95.613281 C 291.996094 95.804688 292.609375 96.023438 293.210938 96.273438 C 293.8125 96.519531 294.398438 96.800781 294.972656 97.105469 C 295.546875 97.414062 296.105469 97.746094 296.644531 98.109375 C 297.1875 98.46875 297.710938 98.859375 298.210938 99.269531 C 298.714844 99.683594 299.199219 100.121094 299.65625 100.582031 C 300.117188 101.039062 300.554688 101.523438 300.96875 102.027344 C 301.378906 102.527344 301.769531 103.050781 302.128906 103.59375 C 302.492188 104.132812 302.824219 104.691406 303.132812 105.265625 C 303.4375 105.839844 303.71875 106.425781 303.964844 107.027344 C 304.214844 107.628906 304.433594 108.242188 304.625 108.867188 C 304.8125 109.488281 304.96875 110.121094 305.097656 110.757812 C 305.222656 111.394531 305.320312 112.039062 305.382812 112.6875 C 305.449219 113.335938 305.480469 113.984375 305.480469 114.636719 L 305.480469 242.160156 C 305.480469 242.8125 305.449219 243.460938 305.382812 244.109375 C 305.320312 244.757812 305.222656 245.398438 305.097656 246.039062 C 304.96875 246.675781 304.8125 247.308594 304.625 247.929688 C 304.433594 248.550781 304.214844 249.164062 303.964844 249.765625 C 303.71875 250.367188 303.4375 250.957031 303.132812 251.53125 C 302.824219 252.105469 302.492188 252.660156 302.128906 253.203125 C 301.769531 253.742188 301.378906 254.265625 300.96875 254.769531 C 300.554688 255.273438 300.117188 255.753906 299.65625 256.214844 C 299.199219 256.675781 298.714844 257.113281 298.210938 257.523438 C 297.710938 257.9375 297.1875 258.324219 296.644531 258.6875 C 296.105469 259.046875 295.546875 259.382812 294.972656 259.6875 C 294.398438 259.996094 293.8125 260.273438 293.210938 260.523438 C 292.609375 260.773438 291.996094 260.992188 291.371094 261.179688 C 290.75 261.371094 290.117188 261.527344 289.480469 261.65625 C 288.84375 261.78125 288.199219 261.875 287.550781 261.941406 C 286.902344 262.003906 286.253906 262.035156 285.601562 262.035156 L 89.199219 262.035156 C 88.546875 262.035156 87.898438 262.003906 87.25 261.941406 C 86.601562 261.875 85.960938 261.78125 85.320312 261.65625 C 84.683594 261.527344 84.050781 261.371094 83.429688 261.179688 C 82.808594 260.992188 82.195312 260.773438 81.59375 260.523438 C 80.992188 260.273438 80.402344 259.996094 79.828125 259.6875 C 79.253906 259.382812 78.699219 259.046875 78.15625 258.6875 C 77.617188 258.324219 77.09375 257.9375 76.589844 257.523438 C 76.085938 257.113281 75.605469 256.675781 75.144531 256.214844 C 74.683594 255.753906 74.246094 255.273438 73.835938 254.769531 C 73.421875 254.265625 73.035156 253.742188 72.671875 253.203125 C 72.3125 252.660156 71.976562 252.105469 71.671875 251.53125 C 71.363281 250.957031 71.085938 250.367188 70.835938 249.765625 C 70.585938 249.164062 70.367188 248.550781 70.179688 247.929688 C 69.988281 247.308594 69.832031 246.675781 69.703125 246.039062 C 69.578125 245.398438 69.484375 244.757812 69.417969 244.109375 C 69.355469 243.460938 69.324219 242.8125 69.324219 242.160156 L 69.324219 114.636719 C 69.324219 113.984375 69.355469 113.335938 69.417969 112.6875 C 69.484375 112.039062 69.578125 111.394531 69.703125 110.757812 C 69.832031 110.121094 69.988281 109.488281 70.179688 108.867188 C 70.367188 108.242188 70.585938 107.628906 70.835938 107.027344 C 71.085938 106.425781 71.363281 105.839844 71.671875 105.265625 C 71.976562 104.691406 72.3125 104.132812 72.671875 103.59375 C 73.035156 103.050781 73.421875 102.527344 73.835938 102.027344 C 74.246094 101.523438 74.683594 101.039062 75.144531 100.582031 C 75.605469 100.121094 76.085938 99.683594 76.589844 99.269531 C 77.09375 98.859375 77.617188 98.46875 78.15625 98.109375 C 78.699219 97.746094 79.253906 97.414062 79.828125 97.105469 C 80.402344 96.800781 80.992188 96.519531 81.59375 96.273438 C 82.195312 96.023438 82.808594 95.804688 83.429688 95.613281 C 84.050781 95.425781 84.683594 95.269531 85.320312 95.140625 C 85.960938 95.015625 86.601562 94.917969 87.25 94.855469 C 87.898438 94.789062 88.546875 94.757812 89.199219 94.757812 Z M 89.199219 94.757812 "/>
</g>
<path style=" stroke:none;fill-rule:nonzero;fill:rgb(100%,100%,100%);fill-opacity:1;" d="M 227.546875 133.675781 C 228.582031 133.679688 229.605469 133.78125 230.621094 133.988281 C 231.636719 134.191406 232.621094 134.492188 233.578125 134.890625 C 234.53125 135.289062 235.4375 135.777344 236.296875 136.355469 C 237.15625 136.929688 237.953125 137.585938 238.683594 138.320312 C 239.414062 139.050781 240.066406 139.847656 240.640625 140.710938 C 241.214844 141.570312 241.699219 142.480469 242.09375 143.4375 C 242.488281 144.390625 242.789062 145.378906 242.988281 146.394531 C 243.191406 147.410156 243.292969 148.433594 243.292969 149.46875 L 243.292969 256.773438 C 243.292969 265.480469 236.257812 242.75 227.546875 242.75 L 147.253906 242.75 C 138.546875 242.75 131.511719 265.480469 131.511719 256.773438 L 131.511719 168.214844 C 131.523438 167.289062 131.710938 166.402344 132.066406 165.554688 C 132.425781 164.703125 132.925781 163.949219 133.578125 163.292969 L 160.832031 136.035156 C 161.488281 135.378906 162.238281 134.871094 163.089844 134.503906 C 163.941406 134.136719 164.828125 133.945312 165.753906 133.921875 Z M 227.546875 133.675781 "/>
<path style=" stroke:none;fill-rule:nonzero;fill:rgb(2.749634%,58.428955%,100%);fill-opacity:1;" d="M 132.152344 165.113281 C 132.507812 164.34375 132.984375 163.652344 133.578125 163.046875 L 160.832031 135.792969 C 161.445312 135.179688 162.152344 134.703125 162.949219 134.363281 L 162.949219 149.371094 C 162.945312 150.40625 162.84375 151.429688 162.636719 152.445312 C 162.433594 153.457031 162.132812 154.445312 161.734375 155.398438 C 161.335938 156.355469 160.847656 157.261719 160.269531 158.121094 C 159.695312 158.980469 159.039062 159.773438 158.304688 160.503906 C 157.574219 161.234375 156.777344 161.886719 155.914062 162.460938 C 155.054688 163.035156 154.144531 163.519531 153.1875 163.917969 C 152.230469 164.3125 151.246094 164.609375 150.230469 164.8125 C 149.214844 165.011719 148.191406 165.113281 147.15625 165.113281 Z M 132.152344 165.113281 "/>
<g clip-path="url(#clip4)" clip-rule="nonzero">
<path style=" stroke:none;fill-rule:nonzero;fill:rgb(2.749634%,58.428955%,100%);fill-opacity:1;" d="M 69.324219 233.550781 L 69.324219 242.160156 C 69.324219 242.804688 69.355469 243.449219 69.417969 244.089844 C 69.480469 244.730469 69.574219 245.367188 69.699219 246 C 69.828125 246.632812 69.984375 247.253906 70.171875 247.871094 C 70.359375 248.488281 70.574219 249.09375 70.820312 249.691406 C 71.066406 250.285156 71.34375 250.867188 71.648438 251.4375 C 71.949219 252.003906 72.28125 252.558594 72.640625 253.09375 C 72.996094 253.628906 73.382812 254.144531 73.789062 254.644531 C 74.199219 255.144531 74.632812 255.621094 75.085938 256.074219 C 75.542969 256.53125 76.019531 256.964844 76.519531 257.371094 C 77.015625 257.78125 77.535156 258.164062 78.070312 258.523438 C 78.605469 258.882812 79.15625 259.210938 79.726562 259.515625 C 80.292969 259.820312 80.875 260.09375 81.472656 260.339844 C 82.066406 260.589844 82.671875 260.804688 83.289062 260.992188 C 83.90625 261.179688 84.53125 261.335938 85.164062 261.460938 C 85.796875 261.585938 86.433594 261.679688 87.074219 261.746094 C 87.714844 261.808594 88.359375 261.839844 89.003906 261.839844 L 285.800781 261.839844 C 286.445312 261.839844 287.085938 261.808594 287.730469 261.746094 C 288.371094 261.679688 289.007812 261.585938 289.640625 261.460938 C 290.269531 261.335938 290.894531 261.179688 291.511719 260.992188 C 292.128906 260.804688 292.734375 260.589844 293.332031 260.339844 C 293.925781 260.09375 294.507812 259.820312 295.078125 259.515625 C 295.644531 259.210938 296.195312 258.882812 296.734375 258.523438 C 297.269531 258.164062 297.785156 257.78125 298.285156 257.371094 C 298.78125 256.964844 299.257812 256.53125 299.714844 256.074219 C 300.171875 255.621094 300.601562 255.144531 301.011719 254.644531 C 301.421875 254.144531 301.804688 253.628906 302.164062 253.09375 C 302.519531 252.558594 302.851562 252.003906 303.15625 251.4375 C 303.460938 250.867188 303.734375 250.285156 303.980469 249.691406 C 304.226562 249.09375 304.445312 248.488281 304.632812 247.871094 C 304.820312 247.253906 304.976562 246.632812 305.101562 246 C 305.226562 245.367188 305.320312 244.730469 305.382812 244.089844 C 305.449219 243.449219 305.480469 242.804688 305.480469 242.160156 L 305.480469 233.550781 Z M 69.324219 233.550781 "/>
</g>
<g clip-path="url(#clip5)" clip-rule="nonzero">
<path style=" stroke:none;fill-rule:nonzero;fill:rgb(79.998779%,84.709167%,89.7995%);fill-opacity:1;" d="M 69.324219 228.285156 L 305.480469 228.285156 L 305.480469 233.5 L 69.324219 233.5 Z M 69.324219 228.285156 "/>
</g>
<path style=" stroke:none;fill-rule:nonzero;fill:rgb(87.449646%,90.979004%,95.689392%);fill-opacity:1;" d="M 131.511719 228.285156 L 243.339844 228.285156 L 243.339844 233.5 L 131.511719 233.5 Z M 131.511719 228.285156 "/>
<path style=" stroke:none;fill-rule:nonzero;fill:rgb(8.239746%,42.349243%,86.669922%);fill-opacity:1;" d="M 190.253906 247.769531 C 190.253906 248.148438 190.183594 248.511719 190.039062 248.859375 C 189.894531 249.210938 189.6875 249.519531 189.417969 249.785156 C 189.152344 250.054688 188.84375 250.261719 188.492188 250.40625 C 188.144531 250.550781 187.78125 250.621094 187.402344 250.621094 C 187.023438 250.621094 186.660156 250.550781 186.308594 250.40625 C 185.960938 250.261719 185.652344 250.054688 185.382812 249.785156 C 185.117188 249.519531 184.910156 249.210938 184.765625 248.859375 C 184.621094 248.511719 184.546875 248.148438 184.546875 247.769531 C 184.546875 247.390625 184.621094 247.027344 184.765625 246.675781 C 184.910156 246.328125 185.117188 246.019531 185.382812 245.75 C 185.652344 245.484375 185.960938 245.277344 186.308594 245.132812 C 186.660156 244.988281 187.023438 244.914062 187.402344 244.914062 C 187.78125 244.914062 188.144531 244.988281 188.492188 245.132812 C 188.84375 245.277344 189.152344 245.484375 189.417969 245.75 C 189.6875 246.019531 189.894531 246.328125 190.039062 246.675781 C 190.183594 247.027344 190.253906 247.390625 190.253906 247.769531 Z M 190.253906 247.769531 "/>
<path style=" stroke:none;fill-rule:nonzero;fill:rgb(100%,100%,100%);fill-opacity:1;" d="M 187.402344 127.179688 C 187.078125 127.179688 186.757812 127.148438 186.441406 127.085938 C 186.125 127.023438 185.816406 126.929688 185.519531 126.808594 C 185.21875 126.683594 184.9375 126.53125 184.667969 126.351562 C 184.398438 126.171875 184.152344 125.96875 183.921875 125.742188 C 183.695312 125.511719 183.488281 125.261719 183.308594 124.996094 C 183.132812 124.726562 182.980469 124.441406 182.855469 124.144531 C 182.730469 123.84375 182.640625 123.539062 182.574219 123.222656 C 182.511719 122.90625 182.480469 122.585938 182.480469 122.261719 L 182.480469 108.140625 C 182.480469 107.816406 182.511719 107.5 182.574219 107.179688 C 182.640625 106.863281 182.730469 106.558594 182.855469 106.257812 C 182.980469 105.960938 183.132812 105.675781 183.308594 105.40625 C 183.488281 105.140625 183.695312 104.890625 183.921875 104.664062 C 184.152344 104.433594 184.398438 104.230469 184.667969 104.050781 C 184.9375 103.871094 185.21875 103.71875 185.519531 103.597656 C 185.816406 103.472656 186.125 103.378906 186.441406 103.316406 C 186.757812 103.253906 187.078125 103.222656 187.402344 103.222656 C 187.722656 103.222656 188.042969 103.253906 188.359375 103.316406 C 188.679688 103.378906 188.984375 103.472656 189.285156 103.597656 C 189.582031 103.71875 189.867188 103.871094 190.132812 104.050781 C 190.402344 104.230469 190.652344 104.433594 190.878906 104.664062 C 191.109375 104.890625 191.3125 105.140625 191.492188 105.40625 C 191.671875 105.675781 191.824219 105.960938 191.945312 106.257812 C 192.070312 106.558594 192.164062 106.863281 192.226562 107.179688 C 192.289062 107.5 192.320312 107.816406 192.320312 108.140625 L 192.320312 122.261719 C 192.320312 122.585938 192.289062 122.90625 192.226562 123.222656 C 192.164062 123.539062 192.070312 123.84375 191.945312 124.144531 C 191.824219 124.441406 191.671875 124.726562 191.492188 124.996094 C 191.3125 125.261719 191.109375 125.511719 190.878906 125.742188 C 190.652344 125.96875 190.402344 126.171875 190.132812 126.351562 C 189.867188 126.53125 189.582031 126.683594 189.285156 126.808594 C 188.984375 126.929688 188.679688 127.023438 188.359375 127.085938 C 188.042969 127.148438 187.722656 127.179688 187.402344 127.179688 Z M 187.402344 127.179688 "/>
<g clip-path="url(#clip6)" clip-rule="nonzero">
<path style=" stroke:none;fill-rule:nonzero;fill:rgb(2.749634%,58.428955%,100%);fill-opacity:1;" d="M 187.402344 116.257812 C 186.632812 116.257812 185.867188 116.222656 185.101562 116.144531 C 184.335938 116.070312 183.578125 115.957031 182.824219 115.808594 C 182.070312 115.65625 181.324219 115.472656 180.589844 115.25 C 179.851562 115.023438 179.128906 114.765625 178.421875 114.472656 C 177.710938 114.179688 177.015625 113.851562 176.339844 113.488281 C 175.660156 113.125 175.003906 112.730469 174.363281 112.304688 C 173.722656 111.875 173.105469 111.417969 172.511719 110.933594 C 171.917969 110.445312 171.351562 109.929688 170.808594 109.386719 C 170.261719 108.84375 169.746094 108.273438 169.261719 107.679688 C 168.773438 107.085938 168.316406 106.46875 167.886719 105.828125 C 167.460938 105.191406 167.066406 104.53125 166.703125 103.855469 C 166.34375 103.175781 166.011719 102.480469 165.71875 101.773438 C 165.425781 101.0625 165.167969 100.339844 164.945312 99.601562 C 164.71875 98.867188 164.535156 98.125 164.382812 97.371094 C 164.234375 96.617188 164.121094 95.855469 164.046875 95.089844 C 163.972656 94.328125 163.933594 93.558594 163.933594 92.789062 C 163.933594 92.023438 163.972656 91.253906 164.046875 90.492188 C 164.121094 89.726562 164.234375 88.964844 164.382812 88.210938 C 164.535156 87.457031 164.71875 86.714844 164.945312 85.980469 C 165.167969 85.242188 165.425781 84.519531 165.71875 83.808594 C 166.011719 83.101562 166.34375 82.40625 166.703125 81.726562 C 167.066406 81.050781 167.460938 80.390625 167.886719 79.753906 C 168.316406 79.113281 168.773438 78.496094 169.261719 77.902344 C 169.746094 77.308594 170.261719 76.738281 170.808594 76.195312 C 171.351562 75.652344 171.917969 75.136719 172.511719 74.648438 C 173.105469 74.164062 173.722656 73.703125 174.363281 73.277344 C 175.003906 72.851562 175.660156 72.457031 176.339844 72.09375 C 177.015625 71.730469 177.710938 71.402344 178.421875 71.109375 C 179.128906 70.816406 179.851562 70.554688 180.589844 70.332031 C 181.324219 70.109375 182.070312 69.925781 182.824219 69.773438 C 183.578125 69.625 184.335938 69.511719 185.101562 69.4375 C 185.867188 69.359375 186.632812 69.324219 187.402344 69.324219 C 188.167969 69.324219 188.9375 69.359375 189.703125 69.4375 C 190.464844 69.511719 191.226562 69.625 191.980469 69.773438 C 192.734375 69.925781 193.476562 70.109375 194.214844 70.332031 C 194.949219 70.554688 195.671875 70.816406 196.382812 71.109375 C 197.09375 71.402344 197.785156 71.730469 198.464844 72.09375 C 199.140625 72.457031 199.800781 72.851562 200.4375 73.277344 C 201.078125 73.703125 201.695312 74.164062 202.289062 74.648438 C 202.882812 75.136719 203.453125 75.652344 203.996094 76.195312 C 204.539062 76.738281 205.054688 77.308594 205.542969 77.902344 C 206.03125 78.496094 206.488281 79.113281 206.914062 79.753906 C 207.339844 80.390625 207.734375 81.050781 208.097656 81.726562 C 208.460938 82.40625 208.789062 83.101562 209.082031 83.808594 C 209.375 84.519531 209.636719 85.242188 209.859375 85.980469 C 210.082031 86.714844 210.269531 87.457031 210.417969 88.210938 C 210.566406 88.964844 210.679688 89.726562 210.757812 90.492188 C 210.832031 91.253906 210.871094 92.023438 210.871094 92.789062 C 210.867188 93.558594 210.828125 94.324219 210.75 95.089844 C 210.675781 95.855469 210.5625 96.613281 210.410156 97.367188 C 210.257812 98.121094 210.070312 98.863281 209.847656 99.597656 C 209.625 100.332031 209.363281 101.054688 209.070312 101.765625 C 208.773438 102.472656 208.445312 103.167969 208.082031 103.84375 C 207.722656 104.519531 207.324219 105.179688 206.898438 105.816406 C 206.472656 106.457031 206.015625 107.070312 205.527344 107.664062 C 205.039062 108.257812 204.523438 108.828125 203.980469 109.371094 C 203.4375 109.914062 202.871094 110.429688 202.277344 110.917969 C 201.683594 111.40625 201.066406 111.863281 200.425781 112.289062 C 199.789062 112.714844 199.132812 113.109375 198.453125 113.472656 C 197.777344 113.835938 197.082031 114.164062 196.375 114.460938 C 195.664062 114.753906 194.941406 115.011719 194.207031 115.238281 C 193.472656 115.460938 192.730469 115.648438 191.976562 115.800781 C 191.222656 115.949219 190.464844 116.066406 189.699219 116.140625 C 188.9375 116.21875 188.167969 116.257812 187.402344 116.257812 Z M 187.402344 84.082031 C 186.828125 84.082031 186.261719 84.136719 185.699219 84.25 C 185.140625 84.363281 184.59375 84.527344 184.066406 84.746094 C 183.535156 84.964844 183.035156 85.234375 182.558594 85.554688 C 182.082031 85.871094 181.640625 86.234375 181.238281 86.640625 C 180.832031 87.042969 180.472656 87.484375 180.15625 87.960938 C 179.835938 88.4375 179.570312 88.941406 179.351562 89.46875 C 179.132812 90 178.96875 90.542969 178.859375 91.105469 C 178.746094 91.667969 178.691406 92.234375 178.691406 92.808594 C 178.695312 93.378906 178.75 93.945312 178.863281 94.507812 C 178.976562 95.070312 179.144531 95.613281 179.363281 96.140625 C 179.585938 96.671875 179.855469 97.171875 180.171875 97.648438 C 180.492188 98.121094 180.855469 98.5625 181.261719 98.964844 C 181.667969 99.371094 182.109375 99.730469 182.585938 100.046875 C 183.0625 100.363281 183.566406 100.628906 184.09375 100.847656 C 184.625 101.066406 185.171875 101.226562 185.734375 101.335938 C 186.292969 101.449219 186.863281 101.5 187.433594 101.5 C 188.007812 101.496094 188.574219 101.4375 189.132812 101.324219 C 189.695312 101.210938 190.238281 101.042969 190.769531 100.820312 C 191.296875 100.601562 191.796875 100.332031 192.273438 100.011719 C 192.746094 99.691406 193.183594 99.328125 193.589844 98.917969 C 193.992188 98.511719 194.351562 98.070312 194.664062 97.59375 C 194.980469 97.117188 195.246094 96.613281 195.464844 96.082031 C 195.679688 95.550781 195.84375 95.003906 195.953125 94.445312 C 196.058594 93.882812 196.113281 93.3125 196.109375 92.742188 C 196.105469 92.171875 196.046875 91.609375 195.933594 91.050781 C 195.820312 90.492188 195.652344 89.949219 195.433594 89.425781 C 195.210938 88.898438 194.941406 88.398438 194.625 87.925781 C 194.308594 87.453125 193.945312 87.019531 193.542969 86.617188 C 193.136719 86.214844 192.699219 85.855469 192.222656 85.539062 C 191.75 85.222656 191.25 84.957031 190.722656 84.742188 C 190.195312 84.523438 189.652344 84.359375 189.09375 84.25 C 188.535156 84.136719 187.972656 84.082031 187.402344 84.082031 Z M 187.402344 84.082031 "/>
</g>
<path style=" stroke:none;fill-rule:nonzero;fill:rgb(100%,100%,100%);fill-opacity:1;" d="M 257.558594 138.644531 C 257.078125 138.648438 256.601562 138.582031 256.140625 138.445312 C 255.675781 138.308594 255.242188 138.109375 254.839844 137.84375 C 254.433594 137.582031 254.078125 137.265625 253.765625 136.894531 C 253.453125 136.523438 253.203125 136.117188 253.011719 135.675781 C 252.820312 135.234375 252.695312 134.769531 252.640625 134.292969 C 252.585938 133.8125 252.601562 133.335938 252.6875 132.859375 C 252.769531 132.382812 252.921875 131.929688 253.140625 131.5 C 253.359375 131.070312 253.632812 130.679688 253.96875 130.328125 L 263.808594 119.703125 C 264.035156 119.472656 264.285156 119.265625 264.554688 119.085938 C 264.824219 118.902344 265.109375 118.75 265.410156 118.625 C 265.707031 118.5 266.015625 118.40625 266.335938 118.34375 C 266.65625 118.28125 266.976562 118.246094 267.300781 118.246094 C 267.625 118.246094 267.945312 118.28125 268.265625 118.34375 C 268.582031 118.40625 268.894531 118.5 269.191406 118.625 C 269.492188 118.75 269.777344 118.902344 270.046875 119.085938 C 270.316406 119.265625 270.566406 119.472656 270.792969 119.703125 C 271.019531 119.929688 271.222656 120.179688 271.402344 120.449219 C 271.578125 120.714844 271.730469 120.996094 271.851562 121.296875 C 271.976562 121.59375 272.066406 121.898438 272.128906 122.214844 C 272.191406 122.53125 272.222656 122.851562 272.222656 123.171875 C 272.222656 123.492188 272.191406 123.8125 272.128906 124.128906 C 272.066406 124.445312 271.976562 124.75 271.851562 125.046875 C 271.730469 125.34375 271.578125 125.628906 271.402344 125.894531 C 271.222656 126.164062 271.019531 126.410156 270.792969 126.640625 L 260.953125 137.316406 C 260 138.210938 258.867188 138.652344 257.558594 138.644531 Z M 257.558594 138.644531 "/>
<path style=" stroke:none;fill-rule:nonzero;fill:rgb(2.749634%,58.428955%,100%);fill-opacity:1;" d="M 278.417969 134.757812 C 277.652344 134.757812 276.882812 134.722656 276.117188 134.648438 C 275.351562 134.574219 274.59375 134.464844 273.839844 134.316406 C 273.082031 134.167969 272.339844 133.984375 271.601562 133.761719 C 270.867188 133.539062 270.140625 133.28125 269.429688 132.988281 C 268.71875 132.695312 268.027344 132.367188 267.347656 132.007812 C 266.667969 131.644531 266.007812 131.253906 265.367188 130.828125 C 264.726562 130.402344 264.109375 129.945312 263.515625 129.457031 C 262.917969 128.972656 262.351562 128.457031 261.804688 127.914062 C 261.261719 127.371094 260.742188 126.800781 260.253906 126.207031 C 259.765625 125.613281 259.308594 125 258.878906 124.359375 C 258.449219 123.722656 258.054688 123.0625 257.691406 122.386719 C 257.328125 121.707031 257 121.015625 256.703125 120.304688 C 256.40625 119.59375 256.148438 118.871094 255.921875 118.136719 C 255.699219 117.402344 255.511719 116.65625 255.359375 115.902344 C 255.210938 115.148438 255.09375 114.390625 255.019531 113.625 C 254.941406 112.859375 254.902344 112.089844 254.902344 111.324219 C 254.902344 110.554688 254.9375 109.785156 255.011719 109.019531 C 255.085938 108.257812 255.199219 107.496094 255.347656 106.742188 C 255.496094 105.988281 255.683594 105.242188 255.90625 104.507812 C 256.125 103.769531 256.382812 103.046875 256.679688 102.335938 C 256.972656 101.625 257.300781 100.929688 257.660156 100.25 C 258.023438 99.574219 258.417969 98.914062 258.84375 98.273438 C 259.269531 97.632812 259.726562 97.015625 260.214844 96.421875 C 260.699219 95.828125 261.214844 95.257812 261.757812 94.714844 C 262.300781 94.167969 262.871094 93.652344 263.464844 93.164062 C 264.058594 92.675781 264.675781 92.21875 265.3125 91.789062 C 265.953125 91.363281 266.609375 90.964844 267.289062 90.601562 C 267.964844 90.238281 268.660156 89.910156 269.371094 89.617188 C 270.082031 89.320312 270.804688 89.0625 271.539062 88.839844 C 272.273438 88.613281 273.019531 88.425781 273.773438 88.277344 C 274.527344 88.125 275.289062 88.011719 276.054688 87.9375 C 276.816406 87.859375 277.585938 87.824219 278.355469 87.820312 C 279.125 87.820312 279.890625 87.859375 280.65625 87.933594 C 281.421875 88.007812 282.179688 88.121094 282.933594 88.269531 C 283.6875 88.417969 284.433594 88.605469 285.171875 88.828125 C 285.90625 89.050781 286.628906 89.308594 287.339844 89.605469 C 288.050781 89.898438 288.746094 90.226562 289.421875 90.585938 C 290.101562 90.949219 290.761719 91.34375 291.398438 91.769531 C 292.039062 92.199219 292.65625 92.65625 293.25 93.144531 C 293.847656 93.628906 294.414062 94.144531 294.960938 94.691406 C 295.503906 95.234375 296.019531 95.800781 296.507812 96.394531 C 296.996094 96.992188 297.453125 97.609375 297.878906 98.246094 C 298.308594 98.886719 298.703125 99.542969 299.066406 100.222656 C 299.425781 100.902344 299.757812 101.59375 300.050781 102.304688 C 300.34375 103.015625 300.605469 103.738281 300.828125 104.472656 C 301.050781 105.210938 301.238281 105.957031 301.386719 106.710938 C 301.539062 107.464844 301.648438 108.222656 301.726562 108.988281 C 301.800781 109.753906 301.839844 110.519531 301.839844 111.289062 C 301.835938 112.058594 301.796875 112.824219 301.722656 113.585938 C 301.644531 114.347656 301.53125 115.105469 301.378906 115.859375 C 301.230469 116.609375 301.042969 117.355469 300.820312 118.089844 C 300.597656 118.820312 300.335938 119.542969 300.042969 120.25 C 299.75 120.960938 299.421875 121.652344 299.058594 122.328125 C 298.699219 123.007812 298.304688 123.664062 297.878906 124.300781 C 297.453125 124.9375 296.996094 125.554688 296.511719 126.148438 C 296.023438 126.742188 295.511719 127.308594 294.96875 127.851562 C 294.425781 128.394531 293.859375 128.910156 293.265625 129.398438 C 292.675781 129.886719 292.058594 130.34375 291.421875 130.769531 C 290.785156 131.199219 290.128906 131.59375 289.453125 131.957031 C 288.777344 132.320312 288.085938 132.648438 287.378906 132.945312 C 286.667969 133.238281 285.949219 133.5 285.214844 133.726562 C 284.480469 133.949219 283.738281 134.136719 282.988281 134.289062 C 282.234375 134.441406 281.476562 134.558594 280.714844 134.636719 C 279.953125 134.714844 279.1875 134.753906 278.417969 134.757812 Z M 278.417969 102.628906 C 277.847656 102.628906 277.277344 102.679688 276.714844 102.789062 C 276.152344 102.898438 275.605469 103.0625 275.074219 103.277344 C 274.546875 103.496094 274.042969 103.761719 273.5625 104.078125 C 273.085938 104.394531 272.644531 104.753906 272.234375 105.15625 C 271.828125 105.5625 271.464844 106 271.144531 106.476562 C 270.824219 106.953125 270.554688 107.453125 270.335938 107.984375 C 270.113281 108.511719 269.945312 109.058594 269.832031 109.621094 C 269.71875 110.183594 269.664062 110.75 269.664062 111.324219 C 269.660156 111.894531 269.714844 112.464844 269.828125 113.027344 C 269.9375 113.589844 270.101562 114.132812 270.320312 114.664062 C 270.539062 115.195312 270.808594 115.695312 271.128906 116.171875 C 271.445312 116.648438 271.808594 117.089844 272.214844 117.496094 C 272.617188 117.902344 273.058594 118.261719 273.535156 118.582031 C 274.011719 118.898438 274.515625 119.167969 275.046875 119.386719 C 275.574219 119.605469 276.121094 119.769531 276.683594 119.882812 C 277.246094 119.992188 277.8125 120.046875 278.386719 120.046875 C 278.960938 120.046875 279.527344 119.988281 280.089844 119.875 C 280.652344 119.761719 281.195312 119.597656 281.726562 119.375 C 282.253906 119.152344 282.757812 118.882812 283.234375 118.5625 C 283.707031 118.242188 284.148438 117.878906 284.550781 117.472656 C 284.957031 117.066406 285.316406 116.625 285.632812 116.144531 C 285.949219 115.667969 286.214844 115.164062 286.429688 114.632812 C 286.648438 114.101562 286.8125 113.554688 286.921875 112.992188 C 287.027344 112.429688 287.082031 111.863281 287.078125 111.289062 C 287.078125 110.722656 287.023438 110.160156 286.914062 109.601562 C 286.800781 109.042969 286.636719 108.5 286.417969 107.976562 C 286.203125 107.449219 285.933594 106.953125 285.621094 106.480469 C 285.304688 106.007812 284.945312 105.570312 284.542969 105.167969 C 284.140625 104.765625 283.703125 104.40625 283.230469 104.089844 C 282.757812 103.773438 282.257812 103.507812 281.734375 103.289062 C 281.207031 103.074219 280.667969 102.90625 280.109375 102.796875 C 279.550781 102.6875 278.988281 102.628906 278.417969 102.628906 Z M 278.417969 102.628906 "/>
<path style=" stroke:none;fill-rule:nonzero;fill:rgb(100%,100%,100%);fill-opacity:1;" d="M 117.242188 138.644531 C 116.550781 138.648438 115.890625 138.515625 115.257812 138.242188 C 114.625 137.964844 114.070312 137.578125 113.601562 137.070312 L 103.761719 126.394531 C 103.542969 126.15625 103.347656 125.898438 103.179688 125.625 C 103.011719 125.347656 102.871094 125.058594 102.757812 124.753906 C 102.644531 124.453125 102.5625 124.140625 102.511719 123.820312 C 102.460938 123.5 102.445312 123.179688 102.457031 122.855469 C 102.46875 122.535156 102.511719 122.214844 102.585938 121.902344 C 102.664062 121.585938 102.769531 121.28125 102.902344 120.988281 C 103.039062 120.695312 103.203125 120.417969 103.390625 120.15625 C 103.582031 119.894531 103.796875 119.652344 104.03125 119.433594 C 104.269531 119.210938 104.527344 119.019531 104.804688 118.847656 C 105.078125 118.679688 105.367188 118.539062 105.671875 118.425781 C 105.976562 118.316406 106.285156 118.234375 106.605469 118.183594 C 106.925781 118.132812 107.246094 118.113281 107.570312 118.125 C 107.894531 118.136719 108.210938 118.183594 108.527344 118.257812 C 108.839844 118.332031 109.144531 118.4375 109.4375 118.574219 C 109.734375 118.710938 110.011719 118.871094 110.273438 119.0625 C 110.535156 119.25 110.773438 119.464844 110.996094 119.703125 L 120.835938 130.328125 C 121.167969 130.679688 121.445312 131.070312 121.660156 131.5 C 121.878906 131.929688 122.03125 132.382812 122.117188 132.859375 C 122.203125 133.335938 122.214844 133.8125 122.160156 134.292969 C 122.105469 134.769531 121.980469 135.234375 121.789062 135.675781 C 121.597656 136.117188 121.347656 136.523438 121.035156 136.894531 C 120.726562 137.265625 120.367188 137.582031 119.964844 137.84375 C 119.558594 138.109375 119.125 138.308594 118.660156 138.445312 C 118.199219 138.582031 117.726562 138.648438 117.242188 138.644531 Z M 117.242188 138.644531 "/>
<path style=" stroke:none;fill-rule:nonzero;fill:rgb(2.749634%,58.428955%,100%);fill-opacity:1;" d="M 96.382812 134.757812 C 95.613281 134.757812 94.847656 134.71875 94.082031 134.644531 C 93.316406 134.570312 92.558594 134.457031 91.804688 134.308594 C 91.050781 134.15625 90.304688 133.96875 89.570312 133.746094 C 88.835938 133.523438 88.113281 133.265625 87.402344 132.972656 C 86.691406 132.675781 85.996094 132.347656 85.320312 131.988281 C 84.640625 131.625 83.984375 131.230469 83.34375 130.804688 C 82.707031 130.375 82.089844 129.917969 81.496094 129.429688 C 80.902344 128.941406 80.332031 128.429688 79.789062 127.882812 C 79.246094 127.339844 78.730469 126.773438 78.242188 126.179688 C 77.753906 125.582031 77.296875 124.96875 76.871094 124.328125 C 76.441406 123.6875 76.046875 123.03125 75.6875 122.351562 C 75.324219 121.675781 74.996094 120.980469 74.699219 120.269531 C 74.40625 119.5625 74.148438 118.835938 73.925781 118.101562 C 73.703125 117.367188 73.515625 116.621094 73.367188 115.867188 C 73.214844 115.113281 73.101562 114.355469 73.027344 113.589844 C 72.953125 112.824219 72.914062 112.058594 72.914062 111.289062 C 72.914062 110.519531 72.953125 109.753906 73.027344 108.988281 C 73.101562 108.226562 73.214844 107.464844 73.367188 106.710938 C 73.515625 105.957031 73.703125 105.214844 73.925781 104.476562 C 74.148438 103.742188 74.40625 103.019531 74.699219 102.308594 C 74.996094 101.597656 75.324219 100.90625 75.6875 100.226562 C 76.046875 99.550781 76.441406 98.890625 76.871094 98.25 C 77.296875 97.613281 77.753906 96.996094 78.242188 96.402344 C 78.730469 95.808594 79.246094 95.238281 79.789062 94.695312 C 80.332031 94.152344 80.902344 93.636719 81.496094 93.148438 C 82.089844 92.660156 82.707031 92.203125 83.34375 91.777344 C 83.984375 91.351562 84.640625 90.957031 85.320312 90.59375 C 85.996094 90.230469 86.691406 89.902344 87.402344 89.609375 C 88.113281 89.3125 88.835938 89.054688 89.570312 88.832031 C 90.304688 88.609375 91.050781 88.421875 91.804688 88.273438 C 92.558594 88.121094 93.316406 88.011719 94.082031 87.933594 C 94.847656 87.859375 95.613281 87.820312 96.382812 87.820312 C 97.152344 87.820312 97.917969 87.859375 98.683594 87.933594 C 99.449219 88.011719 100.207031 88.121094 100.960938 88.273438 C 101.714844 88.421875 102.460938 88.609375 103.195312 88.832031 C 103.929688 89.054688 104.652344 89.3125 105.363281 89.609375 C 106.074219 89.902344 106.765625 90.230469 107.445312 90.59375 C 108.125 90.957031 108.78125 91.351562 109.421875 91.777344 C 110.058594 92.203125 110.675781 92.660156 111.269531 93.148438 C 111.863281 93.636719 112.433594 94.152344 112.976562 94.695312 C 113.519531 95.238281 114.035156 95.808594 114.523438 96.402344 C 115.011719 96.996094 115.46875 97.613281 115.894531 98.25 C 116.324219 98.890625 116.71875 99.550781 117.078125 100.226562 C 117.441406 100.90625 117.769531 101.597656 118.0625 102.308594 C 118.359375 103.019531 118.617188 103.742188 118.839844 104.476562 C 119.0625 105.214844 119.25 105.957031 119.398438 106.710938 C 119.550781 107.464844 119.664062 108.226562 119.738281 108.988281 C 119.8125 109.753906 119.851562 110.519531 119.851562 111.289062 C 119.851562 112.058594 119.8125 112.824219 119.738281 113.589844 C 119.664062 114.355469 119.550781 115.113281 119.398438 115.867188 C 119.25 116.621094 119.0625 117.367188 118.839844 118.101562 C 118.617188 118.835938 118.359375 119.5625 118.0625 120.269531 C 117.769531 120.980469 117.441406 121.675781 117.078125 122.351562 C 116.71875 123.03125 116.324219 123.6875 115.894531 124.328125 C 115.46875 124.96875 115.011719 125.582031 114.523438 126.179688 C 114.035156 126.773438 113.519531 127.339844 112.976562 127.882812 C 112.433594 128.429688 111.863281 128.941406 111.269531 129.429688 C 110.675781 129.917969 110.058594 130.375 109.421875 130.804688 C 108.78125 131.230469 108.125 131.625 107.445312 131.988281 C 106.765625 132.347656 106.074219 132.675781 105.363281 132.972656 C 104.652344 133.265625 103.929688 133.523438 103.195312 133.746094 C 102.460938 133.96875 101.714844 134.15625 100.960938 134.308594 C 100.207031 134.457031 99.449219 134.570312 98.683594 134.644531 C 97.917969 134.71875 97.152344 134.757812 96.382812 134.757812 Z M 96.382812 102.628906 C 95.808594 102.628906 95.242188 102.6875 94.683594 102.796875 C 94.121094 102.910156 93.574219 103.074219 93.046875 103.296875 C 92.515625 103.515625 92.015625 103.785156 91.539062 104.101562 C 91.0625 104.421875 90.625 104.78125 90.21875 105.1875 C 89.816406 105.59375 89.453125 106.035156 89.136719 106.507812 C 88.820312 106.984375 88.550781 107.488281 88.332031 108.019531 C 88.113281 108.546875 87.949219 109.09375 87.839844 109.65625 C 87.726562 110.214844 87.671875 110.78125 87.675781 111.355469 C 87.675781 111.929688 87.734375 112.496094 87.84375 113.054688 C 87.957031 113.617188 88.125 114.164062 88.34375 114.691406 C 88.566406 115.21875 88.835938 115.722656 89.15625 116.195312 C 89.472656 116.671875 89.835938 117.109375 90.242188 117.515625 C 90.648438 117.917969 91.089844 118.277344 91.566406 118.59375 C 92.042969 118.910156 92.546875 119.179688 93.078125 119.394531 C 93.605469 119.613281 94.152344 119.777344 94.714844 119.886719 C 95.277344 119.996094 95.84375 120.050781 96.414062 120.046875 C 96.988281 120.046875 97.554688 119.988281 98.117188 119.875 C 98.675781 119.757812 99.222656 119.589844 99.75 119.371094 C 100.277344 119.148438 100.777344 118.878906 101.253906 118.558594 C 101.726562 118.238281 102.167969 117.875 102.570312 117.46875 C 102.972656 117.0625 103.332031 116.617188 103.648438 116.140625 C 103.964844 115.664062 104.230469 115.160156 104.445312 114.628906 C 104.660156 114.101562 104.824219 113.554688 104.933594 112.992188 C 105.042969 112.429688 105.09375 111.863281 105.089844 111.289062 C 105.089844 110.71875 105.035156 110.152344 104.921875 109.59375 C 104.8125 109.035156 104.644531 108.492188 104.425781 107.964844 C 104.207031 107.4375 103.9375 106.9375 103.621094 106.464844 C 103.304688 105.988281 102.941406 105.550781 102.539062 105.148438 C 102.132812 104.746094 101.691406 104.386719 101.21875 104.074219 C 100.742188 103.757812 100.238281 103.492188 99.710938 103.277344 C 99.183594 103.058594 98.640625 102.898438 98.078125 102.789062 C 97.519531 102.679688 96.953125 102.628906 96.382812 102.628906 Z M 96.382812 102.628906 "/>
</g>
</svg>
