<?xml version="1.0" encoding="UTF-8"?>
<svg xmlns="http://www.w3.org/2000/svg" xmlns:xlink="http://www.w3.org/1999/xlink" width="375pt" height="374.999991pt" viewBox="0 0 375 374.999991" version="1.2">
<defs>
<clipPath id="clip1">
  <path d="M 183 198 L 280 198 L 280 294.324219 L 183 294.324219 Z M 183 198 "/>
</clipPath>
<clipPath id="clip2">
  <path d="M 94.46875 80.105469 L 259 80.105469 L 259 282 L 94.46875 282 Z M 94.46875 80.105469 "/>
</clipPath>
</defs>
<g id="surface1">
<g clip-path="url(#clip1)" clip-rule="nonzero">
<path style=" stroke:none;fill-rule:nonzero;fill:rgb(13.729858%,12.159729%,12.548828%);fill-opacity:1;" d="M 279.65625 246.160156 C 279.65625 219.605469 258.011719 198.003906 231.390625 198.003906 C 204.78125 198.003906 183.136719 219.609375 183.136719 246.160156 C 183.136719 272.722656 204.789062 294.324219 231.398438 294.324219 L 231.402344 294.324219 C 231.675781 294.324219 231.9375 294.3125 232.210938 294.308594 C 232.28125 294.308594 232.339844 294.324219 232.414062 294.324219 C 232.53125 294.324219 232.636719 294.296875 232.753906 294.292969 C 258.734375 293.578125 279.65625 272.269531 279.65625 246.160156 Z M 238.082031 282.363281 L 238.082031 237.523438 L 259.082031 260.070312 L 264.902344 254.664062 L 232.417969 219.789062 L 199.925781 254.664062 L 205.746094 260.070312 L 226.734375 237.53125 L 226.734375 282.667969 C 208.582031 280.367188 194.484375 264.890625 194.484375 246.15625 C 194.484375 225.847656 211.042969 209.328125 231.402344 209.328125 C 251.75 209.328125 268.304688 225.851562 268.304688 246.15625 C 268.308594 264.199219 255.25 279.214844 238.082031 282.363281 Z M 238.082031 282.363281 "/>
</g>
<g clip-path="url(#clip2)" clip-rule="nonzero">
<path style=" stroke:none;fill-rule:nonzero;fill:rgb(13.729858%,12.159729%,12.548828%);fill-opacity:1;" d="M 183.210938 270.402344 L 107.234375 270.402344 C 106.917969 270.402344 106.3125 270.070312 106.214844 269.847656 L 106.214844 103.996094 L 135.988281 103.996094 L 135.988281 109.644531 L 121.101562 109.644531 C 119.535156 109.644531 118.265625 110.910156 118.265625 112.476562 L 118.265625 251.984375 C 118.265625 253.550781 119.53125 254.816406 121.101562 254.816406 L 175.730469 254.816406 C 177.300781 254.816406 178.570312 253.550781 178.570312 251.984375 C 178.570312 250.421875 177.300781 249.152344 175.730469 249.152344 L 123.9375 249.152344 L 123.9375 115.304688 L 135.988281 115.304688 L 135.988281 121.613281 C 135.988281 124.742188 138.53125 127.28125 141.664062 127.28125 L 212.703125 127.28125 C 215.839844 127.28125 218.378906 124.742188 218.378906 121.613281 L 218.378906 115.304688 L 228.558594 115.304688 L 228.558594 188.25 C 228.558594 189.816406 229.832031 191.082031 231.398438 191.082031 C 232.964844 191.082031 234.234375 189.816406 234.234375 188.25 L 234.234375 112.476562 C 234.234375 110.910156 232.96875 109.644531 231.398438 109.644531 L 218.378906 109.644531 L 218.378906 103.996094 L 246.914062 103.996094 L 246.914062 195.714844 C 246.914062 198.839844 249.453125 201.378906 252.585938 201.378906 C 255.71875 201.378906 258.261719 198.839844 258.261719 195.714844 L 258.261719 98.332031 C 258.261719 95.207031 255.71875 92.671875 252.585938 92.671875 L 218.378906 92.671875 L 218.378906 85.773438 C 218.378906 82.644531 215.839844 80.105469 212.703125 80.105469 L 141.664062 80.105469 C 138.53125 80.105469 135.988281 82.644531 135.988281 85.773438 L 135.988281 92.675781 L 100.542969 92.675781 C 97.40625 92.675781 94.867188 95.207031 94.867188 98.335938 L 94.867188 269.847656 C 94.867188 276.957031 101.261719 281.730469 107.234375 281.730469 L 183.210938 281.730469 C 186.347656 281.730469 188.886719 279.195312 188.886719 276.066406 C 188.886719 272.9375 186.347656 270.402344 183.210938 270.402344 Z M 207.027344 91.433594 L 207.027344 115.953125 L 147.339844 115.953125 L 147.339844 98.371094 C 147.339844 98.359375 147.339844 98.347656 147.339844 98.332031 C 147.339844 98.320312 147.339844 98.308594 147.339844 98.296875 L 147.339844 91.433594 Z M 207.027344 91.433594 "/>
</g>
<path style=" stroke:none;fill-rule:nonzero;fill:rgb(13.729858%,12.159729%,12.548828%);fill-opacity:1;" d="M 216.441406 140.902344 L 135.855469 140.902344 C 134.804688 140.902344 133.960938 141.746094 133.960938 142.785156 C 133.960938 143.832031 134.804688 144.675781 135.855469 144.675781 L 216.441406 144.675781 C 217.488281 144.675781 218.332031 143.832031 218.332031 142.785156 C 218.335938 141.746094 217.488281 140.902344 216.441406 140.902344 Z M 216.441406 140.902344 "/>
<path style=" stroke:none;fill-rule:nonzero;fill:rgb(13.729858%,12.159729%,12.548828%);fill-opacity:1;" d="M 216.441406 163.144531 L 135.855469 163.144531 C 134.804688 163.144531 133.960938 163.988281 133.960938 165.03125 C 133.960938 166.074219 134.804688 166.917969 135.855469 166.917969 L 216.441406 166.917969 C 217.488281 166.917969 218.332031 166.074219 218.332031 165.03125 C 218.332031 163.988281 217.488281 163.144531 216.441406 163.144531 Z M 216.441406 163.144531 "/>
<path style=" stroke:none;fill-rule:nonzero;fill:rgb(13.729858%,12.159729%,12.548828%);fill-opacity:1;" d="M 190.703125 207.199219 C 190.703125 206.15625 189.859375 205.308594 188.816406 205.308594 L 135.855469 205.308594 C 134.804688 205.308594 133.960938 206.15625 133.960938 207.199219 C 133.960938 208.242188 134.804688 209.085938 135.855469 209.085938 L 188.816406 209.085938 C 189.859375 209.085938 190.703125 208.242188 190.703125 207.199219 Z M 190.703125 207.199219 "/>
<path style=" stroke:none;fill-rule:nonzero;fill:rgb(13.729858%,12.159729%,12.548828%);fill-opacity:1;" d="M 218.335938 185.960938 C 218.335938 184.921875 217.492188 184.078125 216.445312 184.078125 L 135.855469 184.078125 C 134.804688 184.078125 133.960938 184.921875 133.960938 185.960938 C 133.960938 187.003906 134.804688 187.851562 135.855469 187.851562 L 216.441406 187.851562 C 217.488281 187.855469 218.335938 187.003906 218.335938 185.960938 Z M 218.335938 185.960938 "/>
<path style=" stroke:none;fill-rule:nonzero;fill:rgb(13.729858%,12.159729%,12.548828%);fill-opacity:1;" d="M 135.855469 227.285156 C 134.804688 227.285156 133.960938 228.128906 133.960938 229.175781 C 133.960938 230.21875 134.804688 231.058594 135.855469 231.058594 L 177.1875 231.058594 C 178.234375 231.058594 179.078125 230.21875 179.078125 229.175781 C 179.078125 228.128906 178.234375 227.285156 177.1875 227.285156 Z M 135.855469 227.285156 "/>
</g>
</svg>
