<?xml version="1.0" encoding="UTF-8"?>
<svg xmlns="http://www.w3.org/2000/svg" xmlns:xlink="http://www.w3.org/1999/xlink" width="375pt" height="374.999991pt" viewBox="0 0 375 374.999991" version="1.2">
<defs>
<clipPath id="clip1">
  <path d="M 103.960938 96 L 271.210938 96 L 271.210938 303.769531 L 103.960938 303.769531 Z M 103.960938 96 "/>
</clipPath>
<clipPath id="clip2">
  <path d="M 140 71.269531 L 235 71.269531 L 235 119 L 140 119 Z M 140 71.269531 "/>
</clipPath>
</defs>
<g id="surface1">
<g clip-path="url(#clip1)" clip-rule="nonzero">
<path style=" stroke:none;fill-rule:nonzero;fill:rgb(0%,0%,0%);fill-opacity:1;" d="M 114.878906 303.816406 L 260.464844 303.816406 C 266.472656 303.816406 271.386719 298.910156 271.386719 292.914062 L 271.386719 107.605469 C 271.386719 101.609375 266.472656 96.707031 260.464844 96.707031 L 242.269531 96.707031 L 242.269531 103.972656 L 260.464844 103.972656 C 262.46875 103.972656 264.105469 105.609375 264.105469 107.605469 L 264.105469 292.914062 C 264.105469 294.914062 262.46875 296.550781 260.464844 296.550781 L 114.878906 296.550781 C 112.878906 296.550781 111.238281 294.914062 111.238281 292.914062 L 111.238281 107.605469 C 111.238281 105.609375 112.878906 103.972656 114.878906 103.972656 L 133.078125 103.972656 L 133.078125 96.707031 L 114.878906 96.707031 C 108.875 96.707031 103.960938 101.609375 103.960938 107.605469 L 103.960938 292.914062 C 103.960938 298.910156 108.875 303.816406 114.878906 303.816406 Z M 114.878906 303.816406 "/>
</g>
<g clip-path="url(#clip2)" clip-rule="nonzero">
<path style=" stroke:none;fill-rule:nonzero;fill:rgb(0%,0%,0%);fill-opacity:1;" d="M 143.996094 118.507812 L 231.347656 118.507812 C 233.351562 118.507812 234.988281 116.871094 234.988281 114.875 L 234.988281 96.707031 C 234.988281 90.710938 230.074219 85.804688 224.070312 85.804688 L 206.054688 85.804688 C 204.050781 77.449219 196.589844 71.269531 187.671875 71.269531 C 178.753906 71.269531 171.292969 77.449219 169.292969 85.804688 L 151.277344 85.804688 C 145.269531 85.804688 140.355469 90.710938 140.355469 96.707031 L 140.355469 114.875 C 140.355469 116.871094 141.996094 118.507812 143.996094 118.507812 Z M 187.671875 85.804688 C 189.675781 85.804688 191.3125 87.441406 191.3125 89.4375 C 191.3125 91.4375 189.675781 93.074219 187.671875 93.074219 C 185.671875 93.074219 184.03125 91.4375 184.03125 89.4375 C 184.03125 87.441406 185.671875 85.804688 187.671875 85.804688 Z M 187.671875 85.804688 "/>
</g>
<path style=" stroke:none;fill-rule:nonzero;fill:rgb(0%,0%,0%);fill-opacity:1;" d="M 133.078125 111.238281 L 125.796875 111.238281 C 123.796875 111.238281 122.160156 112.875 122.160156 114.875 L 122.160156 282.015625 C 122.160156 284.011719 123.796875 285.648438 125.796875 285.648438 L 207.691406 285.648438 C 208.601562 285.648438 209.511719 285.285156 210.238281 284.738281 L 252.09375 246.042969 C 252.824219 245.316406 253.1875 244.40625 253.1875 243.316406 L 253.1875 114.875 C 253.1875 112.875 251.550781 111.238281 249.546875 111.238281 L 242.269531 111.238281 L 242.269531 114.875 C 242.269531 120.867188 237.355469 125.773438 231.347656 125.773438 L 143.996094 125.773438 C 137.992188 125.773438 133.078125 120.867188 133.078125 114.875 Z M 239.902344 247.316406 L 212.96875 272.203125 L 212.96875 247.316406 Z M 165.835938 138.492188 L 234.988281 138.492188 C 236.992188 138.492188 238.628906 140.125 238.628906 142.125 C 238.628906 144.125 236.992188 145.757812 234.988281 145.757812 L 165.835938 145.757812 C 163.832031 145.757812 162.195312 144.125 162.195312 142.125 C 162.195312 140.125 163.832031 138.492188 165.835938 138.492188 Z M 165.835938 158.476562 L 234.988281 158.476562 C 236.992188 158.476562 238.628906 160.109375 238.628906 162.109375 C 238.628906 164.109375 236.992188 165.742188 234.988281 165.742188 L 165.835938 165.742188 C 163.832031 165.742188 162.195312 164.109375 162.195312 162.109375 C 162.195312 160.109375 163.832031 158.476562 165.835938 158.476562 Z M 165.835938 176.644531 L 234.988281 176.644531 C 236.992188 176.644531 238.628906 178.277344 238.628906 180.277344 C 238.628906 182.273438 236.992188 183.910156 234.988281 183.910156 L 165.835938 183.910156 C 163.832031 183.910156 162.195312 182.273438 162.195312 180.277344 C 162.195312 178.277344 163.832031 176.644531 165.835938 176.644531 Z M 165.835938 194.8125 L 234.988281 194.8125 C 236.992188 194.8125 238.628906 196.445312 238.628906 198.445312 C 238.628906 200.441406 236.992188 202.078125 234.988281 202.078125 L 165.835938 202.078125 C 163.832031 202.078125 162.195312 200.441406 162.195312 198.445312 C 162.195312 196.445312 163.832031 194.8125 165.835938 194.8125 Z M 165.835938 212.976562 L 234.988281 212.976562 C 236.992188 212.976562 238.628906 214.613281 238.628906 216.613281 C 238.628906 218.609375 236.992188 220.246094 234.988281 220.246094 L 165.835938 220.246094 C 163.832031 220.246094 162.195312 218.609375 162.195312 216.613281 C 162.195312 214.613281 163.832031 212.976562 165.835938 212.976562 Z M 137.992188 141.214844 C 139.445312 139.945312 141.8125 140.125 143.085938 141.578125 L 143.996094 142.667969 L 150.910156 137.402344 C 152.550781 136.128906 154.734375 136.492188 156.007812 138.128906 C 157.28125 139.761719 156.917969 141.941406 155.28125 143.214844 L 145.632812 150.480469 C 144.90625 151.027344 144.179688 151.207031 143.449219 151.207031 C 142.359375 151.207031 141.449219 150.84375 140.722656 149.9375 L 137.445312 146.304688 C 136.351562 144.851562 136.535156 142.488281 137.992188 141.214844 Z M 137.992188 159.382812 C 139.445312 158.113281 141.8125 158.292969 143.085938 159.746094 L 143.996094 160.835938 L 150.910156 155.570312 C 152.550781 154.296875 154.734375 154.660156 156.007812 156.296875 C 157.28125 157.929688 156.917969 160.109375 155.28125 161.382812 L 145.632812 168.648438 C 144.90625 169.195312 144.179688 169.375 143.449219 169.375 C 142.359375 169.375 141.449219 169.011719 140.722656 168.105469 L 137.445312 164.472656 C 136.351562 163.015625 136.535156 160.65625 137.992188 159.382812 Z M 137.992188 177.550781 C 139.445312 176.28125 141.8125 176.460938 143.085938 177.914062 L 143.996094 179.003906 L 150.910156 173.734375 C 152.550781 172.464844 154.734375 172.828125 156.007812 174.464844 C 157.28125 176.097656 156.917969 178.277344 155.28125 179.550781 L 145.632812 186.816406 C 144.90625 187.363281 144.179688 187.542969 143.449219 187.542969 C 142.359375 187.542969 141.449219 187.179688 140.722656 186.273438 L 137.445312 182.636719 C 136.351562 181.183594 136.535156 178.824219 137.992188 177.550781 Z M 137.992188 195.71875 C 139.445312 194.449219 141.8125 194.628906 143.085938 196.082031 L 143.996094 197.171875 L 150.910156 191.902344 C 152.550781 190.632812 154.734375 190.996094 156.007812 192.628906 C 157.28125 194.265625 156.917969 196.445312 155.28125 197.71875 L 145.632812 204.984375 C 144.90625 205.53125 144.179688 205.710938 143.449219 205.710938 C 142.359375 205.710938 141.449219 205.347656 140.722656 204.441406 L 137.445312 200.804688 C 136.351562 199.351562 136.535156 196.992188 137.992188 195.71875 Z M 155.28125 215.886719 L 145.632812 223.152344 C 144.90625 223.695312 144.179688 223.878906 143.449219 223.878906 C 142.359375 223.878906 141.449219 223.515625 140.722656 222.605469 L 137.445312 218.972656 C 136.171875 217.519531 136.351562 215.160156 137.808594 213.886719 C 139.265625 212.613281 141.628906 212.796875 142.90625 214.25 L 143.816406 215.339844 L 150.730469 210.070312 C 152.367188 208.800781 154.550781 209.164062 155.824219 210.796875 C 157.28125 212.433594 156.917969 214.613281 155.28125 215.886719 Z M 140.355469 249.3125 L 158.554688 249.3125 C 160.558594 249.3125 162.195312 250.949219 162.195312 252.945312 C 162.195312 254.945312 160.558594 256.582031 158.554688 256.582031 L 140.355469 256.582031 C 138.355469 256.582031 136.71875 254.945312 136.71875 252.945312 C 136.71875 250.949219 138.355469 249.3125 140.355469 249.3125 Z M 140.355469 249.3125 "/>
</g>
</svg>
