<?xml version="1.0" encoding="UTF-8"?>
<svg xmlns="http://www.w3.org/2000/svg" xmlns:xlink="http://www.w3.org/1999/xlink" width="375pt" height="374.999991pt" viewBox="0 0 375 374.999991" version="1.2">
<defs>
<clipPath id="clip1">
  <path d="M 78 71.773438 L 298 71.773438 L 298 303.523438 L 78 303.523438 Z M 78 71.773438 "/>
</clipPath>
</defs>
<g id="surface1">
<g clip-path="url(#clip1)" clip-rule="nonzero">
<path style=" stroke:none;fill-rule:nonzero;fill:rgb(2.749634%,58.428955%,100%);fill-opacity:1;" d="M 282.550781 187.800781 C 282.550781 184.761719 282.550781 181.71875 282.066406 178.777344 C 281.945312 177.648438 281.957031 176.523438 282.097656 175.402344 C 282.238281 174.277344 282.507812 173.183594 282.90625 172.125 C 283.304688 171.066406 283.816406 170.066406 284.449219 169.125 C 285.082031 168.1875 285.8125 167.332031 286.644531 166.566406 L 292.859375 160.917969 C 293.453125 160.371094 293.992188 159.777344 294.488281 159.136719 C 294.980469 158.496094 295.414062 157.820312 295.796875 157.109375 C 296.175781 156.398438 296.492188 155.660156 296.75 154.894531 C 297.007812 154.128906 297.199219 153.34375 297.324219 152.546875 C 297.449219 151.75 297.507812 150.949219 297.5 150.140625 C 297.492188 149.332031 297.417969 148.53125 297.273438 147.734375 C 297.132812 146.941406 296.925781 146.164062 296.652344 145.402344 C 296.382812 144.644531 296.046875 143.910156 295.652344 143.207031 L 280.285156 116.515625 C 279.875 115.824219 279.40625 115.167969 278.882812 114.550781 C 278.363281 113.9375 277.792969 113.367188 277.175781 112.847656 C 276.558594 112.328125 275.902344 111.863281 275.210938 111.453125 C 274.515625 111.039062 273.792969 110.691406 273.039062 110.402344 C 272.285156 110.113281 271.515625 109.886719 270.722656 109.730469 C 269.933594 109.570312 269.136719 109.476562 268.328125 109.449219 C 267.523438 109.425781 266.71875 109.464844 265.921875 109.574219 C 265.121094 109.683594 264.339844 109.859375 263.566406 110.097656 L 255.617188 112.65625 C 254.570312 112.992188 253.5 113.199219 252.402344 113.277344 C 251.304688 113.355469 250.214844 113.304688 249.128906 113.125 C 248.046875 112.945312 246.996094 112.640625 245.984375 112.210938 C 244.972656 111.78125 244.023438 111.234375 243.140625 110.582031 C 238 106.929688 232.554688 103.808594 226.808594 101.21875 C 225.824219 100.769531 224.90625 100.21875 224.046875 99.558594 C 223.191406 98.898438 222.417969 98.152344 221.734375 97.316406 C 221.050781 96.476562 220.46875 95.574219 219.992188 94.601562 C 219.511719 93.632812 219.152344 92.621094 218.910156 91.566406 L 217.125 83.3125 C 216.964844 82.515625 216.734375 81.738281 216.4375 80.980469 C 216.140625 80.222656 215.78125 79.496094 215.363281 78.800781 C 214.941406 78.105469 214.464844 77.453125 213.929688 76.839844 C 213.398438 76.226562 212.816406 75.664062 212.1875 75.152344 C 211.554688 74.636719 210.886719 74.183594 210.179688 73.785156 C 209.472656 73.386719 208.734375 73.050781 207.96875 72.78125 C 207.203125 72.511719 206.421875 72.304688 205.621094 72.171875 C 204.820312 72.035156 204.015625 71.96875 203.203125 71.96875 L 172.464844 71.96875 C 171.65625 71.96875 170.851562 72.03125 170.054688 72.167969 C 169.253906 72.304688 168.472656 72.503906 167.707031 72.773438 C 166.945312 73.042969 166.207031 73.375 165.5 73.773438 C 164.792969 74.167969 164.125 74.621094 163.496094 75.132812 C 162.867188 75.640625 162.285156 76.203125 161.75 76.8125 C 161.21875 77.425781 160.738281 78.074219 160.316406 78.769531 C 159.894531 79.460938 159.535156 80.183594 159.238281 80.941406 C 158.941406 81.695312 158.707031 82.46875 158.542969 83.265625 L 156.761719 91.515625 C 156.515625 92.570312 156.15625 93.582031 155.679688 94.554688 C 155.203125 95.527344 154.621094 96.429688 153.933594 97.265625 C 153.25 98.105469 152.480469 98.851562 151.621094 99.511719 C 150.765625 100.171875 149.84375 100.722656 148.859375 101.167969 C 143.113281 103.777344 137.667969 106.914062 132.527344 110.582031 C 131.636719 111.21875 130.683594 111.746094 129.667969 112.160156 C 128.648438 112.574219 127.597656 112.859375 126.515625 113.023438 C 125.429688 113.1875 124.34375 113.222656 123.25 113.128906 C 122.15625 113.03125 121.089844 112.8125 120.050781 112.460938 L 112.101562 109.90625 C 111.332031 109.664062 110.546875 109.488281 109.746094 109.382812 C 108.949219 109.273438 108.144531 109.230469 107.339844 109.257812 C 106.535156 109.28125 105.738281 109.375 104.945312 109.535156 C 104.15625 109.695312 103.382812 109.917969 102.632812 110.207031 C 101.878906 110.496094 101.15625 110.847656 100.460938 111.257812 C 99.765625 111.667969 99.109375 112.132812 98.492188 112.65625 C 97.875 113.175781 97.308594 113.742188 96.785156 114.359375 C 96.261719 114.972656 95.796875 115.628906 95.382812 116.324219 L 80.015625 143.207031 C 79.621094 143.910156 79.289062 144.644531 79.015625 145.402344 C 78.746094 146.164062 78.539062 146.941406 78.394531 147.734375 C 78.253906 148.53125 78.179688 149.332031 78.167969 150.140625 C 78.160156 150.949219 78.21875 151.75 78.347656 152.546875 C 78.472656 153.34375 78.664062 154.128906 78.917969 154.894531 C 79.175781 155.660156 79.492188 156.398438 79.875 157.109375 C 80.253906 157.820312 80.691406 158.496094 81.183594 159.136719 C 81.675781 159.777344 82.21875 160.371094 82.808594 160.917969 L 89.023438 166.566406 C 89.855469 167.332031 90.585938 168.1875 91.21875 169.125 C 91.851562 170.066406 92.367188 171.066406 92.761719 172.125 C 93.160156 173.183594 93.429688 174.277344 93.570312 175.402344 C 93.714844 176.523438 93.722656 177.648438 93.601562 178.777344 C 93.3125 181.71875 93.121094 184.761719 93.121094 187.800781 C 93.109375 190.816406 93.269531 193.828125 93.601562 196.824219 C 93.722656 197.953125 93.714844 199.078125 93.570312 200.199219 C 93.429688 201.324219 93.160156 202.417969 92.761719 203.476562 C 92.367188 204.535156 91.851562 205.535156 91.21875 206.476562 C 90.585938 207.414062 89.855469 208.269531 89.023438 209.035156 L 82.808594 214.632812 C 82.21875 215.183594 81.675781 215.777344 81.183594 216.414062 C 80.691406 217.054688 80.253906 217.730469 79.875 218.441406 C 79.492188 219.15625 79.175781 219.894531 78.917969 220.660156 C 78.664062 221.425781 78.472656 222.207031 78.347656 223.003906 C 78.21875 223.804688 78.160156 224.605469 78.167969 225.414062 C 78.179688 226.222656 78.253906 227.023438 78.394531 227.816406 C 78.539062 228.613281 78.746094 229.390625 79.015625 230.148438 C 79.289062 230.910156 79.621094 231.644531 80.015625 232.347656 L 95.382812 259.035156 C 95.796875 259.730469 96.261719 260.386719 96.785156 261 C 97.308594 261.617188 97.875 262.183594 98.492188 262.707031 C 99.109375 263.226562 99.765625 263.691406 100.460938 264.101562 C 101.15625 264.511719 101.878906 264.863281 102.632812 265.152344 C 103.382812 265.441406 104.15625 265.664062 104.945312 265.824219 C 105.738281 265.984375 106.535156 266.078125 107.339844 266.101562 C 108.144531 266.128906 108.949219 266.085938 109.746094 265.980469 C 110.546875 265.871094 111.332031 265.695312 112.101562 265.457031 L 120.050781 262.898438 C 121.09375 262.558594 122.160156 262.347656 123.25 262.257812 C 124.339844 262.167969 125.425781 262.207031 126.511719 262.371094 C 127.59375 262.53125 128.640625 262.816406 129.660156 263.226562 C 130.675781 263.632812 131.632812 264.148438 132.527344 264.78125 C 137.660156 268.464844 143.101562 271.601562 148.859375 274.191406 C 149.875 274.65625 150.824219 275.234375 151.699219 275.929688 C 152.574219 276.621094 153.359375 277.410156 154.046875 278.292969 C 154.734375 279.171875 155.308594 280.125 155.765625 281.144531 C 156.226562 282.164062 156.554688 283.226562 156.761719 284.324219 L 158.542969 292.578125 C 158.730469 293.355469 158.984375 294.113281 159.296875 294.847656 C 159.613281 295.585938 159.984375 296.289062 160.417969 296.964844 C 160.847656 297.636719 161.332031 298.269531 161.867188 298.863281 C 162.402344 299.457031 162.984375 300.003906 163.609375 300.5 C 164.234375 300.996094 164.898438 301.441406 165.597656 301.828125 C 166.296875 302.214844 167.023438 302.539062 167.777344 302.808594 C 168.53125 303.074219 169.300781 303.273438 170.085938 303.414062 C 170.875 303.550781 171.667969 303.625 172.464844 303.632812 L 203.203125 303.632812 C 204.007812 303.621094 204.808594 303.546875 205.601562 303.402344 C 206.390625 303.257812 207.167969 303.050781 207.925781 302.777344 C 208.683594 302.507812 209.414062 302.171875 210.117188 301.777344 C 210.816406 301.382812 211.480469 300.929688 212.109375 300.425781 C 212.734375 299.917969 213.316406 299.363281 213.851562 298.761719 C 214.386719 298.15625 214.867188 297.511719 215.292969 296.828125 C 215.71875 296.144531 216.085938 295.429688 216.394531 294.683594 C 216.703125 293.9375 216.945312 293.171875 217.125 292.386719 L 218.910156 284.324219 C 219.128906 283.246094 219.476562 282.210938 219.941406 281.214844 C 220.410156 280.214844 220.984375 279.289062 221.671875 278.429688 C 222.359375 277.570312 223.136719 276.800781 224.003906 276.125 C 224.875 275.449219 225.808594 274.886719 226.808594 274.433594 C 232.566406 271.839844 238.011719 268.703125 243.140625 265.019531 C 244.039062 264.390625 244.996094 263.875 246.011719 263.464844 C 247.027344 263.058594 248.078125 262.773438 249.160156 262.609375 C 250.242188 262.449219 251.328125 262.410156 252.417969 262.5 C 253.511719 262.589844 254.578125 262.800781 255.617188 263.140625 L 263.566406 265.695312 C 264.339844 265.9375 265.121094 266.109375 265.921875 266.21875 C 266.71875 266.328125 267.523438 266.371094 268.328125 266.34375 C 269.136719 266.316406 269.933594 266.226562 270.722656 266.066406 C 271.515625 265.90625 272.285156 265.679688 273.039062 265.390625 C 273.792969 265.101562 274.515625 264.753906 275.210938 264.34375 C 275.902344 263.933594 276.558594 263.46875 277.175781 262.945312 C 277.792969 262.425781 278.363281 261.859375 278.882812 261.242188 C 279.40625 260.625 279.875 259.972656 280.285156 259.277344 L 295.652344 232.589844 C 296.046875 231.882812 296.382812 231.152344 296.652344 230.390625 C 296.925781 229.632812 297.132812 228.851562 297.273438 228.058594 C 297.417969 227.261719 297.492188 226.460938 297.5 225.65625 C 297.507812 224.847656 297.449219 224.042969 297.324219 223.246094 C 297.199219 222.449219 297.007812 221.667969 296.75 220.902344 C 296.492188 220.136719 296.175781 219.398438 295.796875 218.683594 C 295.414062 217.972656 294.980469 217.296875 294.488281 216.65625 C 293.992188 216.019531 293.453125 215.425781 292.859375 214.875 L 286.644531 209.035156 C 285.8125 208.269531 285.082031 207.414062 284.449219 206.476562 C 283.816406 205.535156 283.304688 204.535156 282.90625 203.476562 C 282.507812 202.417969 282.238281 201.324219 282.097656 200.199219 C 281.957031 199.078125 281.945312 197.953125 282.066406 196.824219 C 282.398438 193.828125 282.558594 190.816406 282.550781 187.800781 Z M 282.550781 187.800781 "/>
</g>
<path style=" stroke:none;fill-rule:nonzero;fill:rgb(8.239746%,42.349243%,86.669922%);fill-opacity:1;" d="M 221.558594 187.800781 C 221.558594 188.90625 221.503906 190.011719 221.394531 191.113281 C 221.289062 192.214844 221.125 193.304688 220.910156 194.390625 C 220.695312 195.476562 220.425781 196.546875 220.105469 197.609375 C 219.785156 198.667969 219.414062 199.707031 218.992188 200.730469 C 218.570312 201.75 218.097656 202.75 217.578125 203.726562 C 217.054688 204.703125 216.488281 205.648438 215.875 206.570312 C 215.261719 207.488281 214.605469 208.378906 213.902344 209.234375 C 213.203125 210.089844 212.460938 210.90625 211.679688 211.691406 C 210.898438 212.472656 210.082031 213.214844 209.230469 213.914062 C 208.375 214.617188 207.488281 215.277344 206.570312 215.890625 C 205.652344 216.503906 204.707031 217.074219 203.730469 217.59375 C 202.757812 218.117188 201.761719 218.589844 200.738281 219.011719 C 199.71875 219.4375 198.679688 219.808594 197.625 220.128906 C 196.566406 220.449219 195.496094 220.71875 194.414062 220.933594 C 193.332031 221.152344 192.238281 221.3125 191.140625 221.421875 C 190.039062 221.53125 188.9375 221.585938 187.835938 221.585938 C 186.730469 221.585938 185.628906 221.53125 184.527344 221.421875 C 183.429688 221.3125 182.339844 221.152344 181.253906 220.933594 C 180.171875 220.71875 179.101562 220.449219 178.046875 220.128906 C 176.988281 219.808594 175.949219 219.4375 174.929688 219.011719 C 173.910156 218.589844 172.910156 218.117188 171.9375 217.59375 C 170.964844 217.074219 170.015625 216.503906 169.097656 215.890625 C 168.179688 215.277344 167.292969 214.617188 166.441406 213.914062 C 165.585938 213.214844 164.769531 212.472656 163.988281 211.691406 C 163.207031 210.90625 162.464844 210.089844 161.765625 209.234375 C 161.066406 208.378906 160.40625 207.488281 159.792969 206.570312 C 159.179688 205.648438 158.613281 204.703125 158.09375 203.726562 C 157.574219 202.75 157.101562 201.75 156.679688 200.730469 C 156.253906 199.707031 155.882812 198.667969 155.5625 197.609375 C 155.242188 196.546875 154.972656 195.476562 154.757812 194.390625 C 154.542969 193.304688 154.382812 192.214844 154.273438 191.113281 C 154.164062 190.011719 154.109375 188.90625 154.109375 187.800781 C 154.109375 186.695312 154.164062 185.589844 154.273438 184.488281 C 154.382812 183.386719 154.542969 182.296875 154.757812 181.210938 C 154.972656 180.125 155.242188 179.050781 155.5625 177.992188 C 155.882812 176.933594 156.253906 175.894531 156.679688 174.871094 C 157.101562 173.851562 157.574219 172.851562 158.09375 171.875 C 158.613281 170.898438 159.179688 169.953125 159.792969 169.03125 C 160.40625 168.113281 161.066406 167.222656 161.765625 166.367188 C 162.464844 165.511719 163.207031 164.695312 163.988281 163.910156 C 164.769531 163.128906 165.585938 162.386719 166.441406 161.683594 C 167.292969 160.984375 168.179688 160.324219 169.097656 159.710938 C 170.015625 159.09375 170.964844 158.527344 171.9375 158.007812 C 172.910156 157.484375 173.910156 157.011719 174.929688 156.589844 C 175.949219 156.164062 176.988281 155.792969 178.046875 155.472656 C 179.101562 155.148438 180.171875 154.882812 181.253906 154.664062 C 182.339844 154.449219 183.429688 154.289062 184.527344 154.179688 C 185.628906 154.070312 186.730469 154.015625 187.835938 154.015625 C 188.9375 154.015625 190.039062 154.070312 191.140625 154.179688 C 192.238281 154.289062 193.332031 154.449219 194.414062 154.664062 C 195.496094 154.882812 196.566406 155.148438 197.625 155.472656 C 198.679688 155.792969 199.71875 156.164062 200.738281 156.589844 C 201.761719 157.011719 202.757812 157.484375 203.730469 158.007812 C 204.707031 158.527344 205.652344 159.09375 206.570312 159.710938 C 207.488281 160.324219 208.375 160.984375 209.230469 161.683594 C 210.082031 162.386719 210.898438 163.128906 211.679688 163.910156 C 212.460938 164.695312 213.203125 165.511719 213.902344 166.367188 C 214.605469 167.222656 215.261719 168.113281 215.875 169.03125 C 216.488281 169.953125 217.054688 170.898438 217.578125 171.875 C 218.097656 172.851562 218.570312 173.851562 218.992188 174.871094 C 219.414062 175.894531 219.785156 176.933594 220.105469 177.992188 C 220.425781 179.050781 220.695312 180.125 220.910156 181.210938 C 221.125 182.296875 221.289062 183.386719 221.394531 184.488281 C 221.503906 185.589844 221.558594 186.695312 221.558594 187.800781 Z M 221.558594 187.800781 "/>
<path style=" stroke:none;fill-rule:nonzero;fill:rgb(79.998779%,84.709167%,89.7995%);fill-opacity:1;" d="M 251.621094 187.800781 C 251.621094 188.847656 251.59375 189.890625 251.542969 190.9375 C 251.492188 191.980469 251.414062 193.023438 251.3125 194.0625 C 251.210938 195.105469 251.082031 196.140625 250.929688 197.175781 C 250.777344 198.210938 250.597656 199.242188 250.394531 200.265625 C 250.191406 201.292969 249.960938 202.3125 249.707031 203.328125 C 249.457031 204.339844 249.175781 205.347656 248.875 206.351562 C 248.570312 207.351562 248.242188 208.34375 247.890625 209.328125 C 247.539062 210.3125 247.164062 211.289062 246.765625 212.253906 C 246.367188 213.21875 245.941406 214.175781 245.496094 215.121094 C 245.050781 216.066406 244.582031 217 244.089844 217.921875 C 243.597656 218.84375 243.082031 219.753906 242.546875 220.652344 C 242.007812 221.546875 241.449219 222.433594 240.871094 223.300781 C 240.289062 224.171875 239.691406 225.027344 239.066406 225.867188 C 238.445312 226.707031 237.804688 227.53125 237.140625 228.339844 C 236.480469 229.148438 235.796875 229.9375 235.097656 230.714844 C 234.394531 231.488281 233.675781 232.246094 232.9375 232.984375 C 232.199219 233.722656 231.445312 234.445312 230.671875 235.148438 C 229.898438 235.847656 229.105469 236.53125 228.300781 237.195312 C 227.492188 237.859375 226.671875 238.503906 225.832031 239.125 C 224.992188 239.75 224.140625 240.351562 223.273438 240.929688 C 222.402344 241.511719 221.523438 242.070312 220.628906 242.609375 C 219.730469 243.148438 218.824219 243.664062 217.902344 244.15625 C 216.980469 244.648438 216.050781 245.117188 215.105469 245.566406 C 214.164062 246.011719 213.207031 246.4375 212.246094 246.835938 C 211.28125 247.238281 210.304688 247.613281 209.324219 247.964844 C 208.339844 248.316406 207.351562 248.644531 206.351562 248.949219 C 205.351562 249.253906 204.347656 249.53125 203.332031 249.785156 C 202.320312 250.039062 201.300781 250.269531 200.277344 250.472656 C 199.253906 250.675781 198.226562 250.855469 197.195312 251.007812 C 196.160156 251.164062 195.125 251.289062 194.085938 251.394531 C 193.046875 251.496094 192.007812 251.570312 190.964844 251.625 C 189.921875 251.675781 188.878906 251.699219 187.835938 251.699219 C 186.789062 251.699219 185.746094 251.675781 184.703125 251.625 C 183.664062 251.570312 182.621094 251.496094 181.582031 251.394531 C 180.542969 251.289062 179.507812 251.164062 178.476562 251.007812 C 177.441406 250.855469 176.414062 250.675781 175.390625 250.472656 C 174.367188 250.269531 173.347656 250.039062 172.335938 249.785156 C 171.324219 249.53125 170.316406 249.253906 169.320312 248.949219 C 168.320312 248.644531 167.328125 248.316406 166.347656 247.964844 C 165.363281 247.613281 164.390625 247.238281 163.425781 246.835938 C 162.460938 246.4375 161.507812 246.011719 160.5625 245.566406 C 159.617188 245.117188 158.6875 244.648438 157.765625 244.15625 C 156.84375 243.664062 155.9375 243.148438 155.042969 242.609375 C 154.148438 242.070312 153.265625 241.511719 152.398438 240.929688 C 151.527344 240.351562 150.675781 239.75 149.835938 239.125 C 149 238.503906 148.175781 237.859375 147.371094 237.195312 C 146.5625 236.53125 145.773438 235.847656 145 235.148438 C 144.226562 234.445312 143.46875 233.722656 142.730469 232.984375 C 141.992188 232.246094 141.273438 231.488281 140.574219 230.714844 C 139.871094 229.9375 139.191406 229.148438 138.527344 228.339844 C 137.867188 227.53125 137.222656 226.707031 136.601562 225.867188 C 135.980469 225.027344 135.378906 224.171875 134.796875 223.300781 C 134.21875 222.433594 133.660156 221.546875 133.125 220.652344 C 132.585938 219.753906 132.074219 218.84375 131.582031 217.921875 C 131.089844 217 130.621094 216.066406 130.171875 215.121094 C 129.726562 214.175781 129.304688 213.21875 128.90625 212.253906 C 128.503906 211.289062 128.128906 210.3125 127.777344 209.328125 C 127.425781 208.34375 127.097656 207.351562 126.796875 206.351562 C 126.492188 205.347656 126.214844 204.339844 125.960938 203.328125 C 125.707031 202.3125 125.476562 201.292969 125.273438 200.265625 C 125.070312 199.242188 124.890625 198.210938 124.738281 197.175781 C 124.585938 196.140625 124.457031 195.105469 124.355469 194.0625 C 124.253906 193.023438 124.175781 191.980469 124.125 190.9375 C 124.074219 189.890625 124.050781 188.847656 124.050781 187.800781 C 124.050781 186.753906 124.074219 185.710938 124.125 184.664062 C 124.175781 183.621094 124.253906 182.578125 124.355469 181.539062 C 124.457031 180.496094 124.585938 179.460938 124.738281 178.425781 C 124.890625 177.390625 125.070312 176.359375 125.273438 175.335938 C 125.476562 174.308594 125.707031 173.289062 125.960938 172.273438 C 126.214844 171.261719 126.492188 170.253906 126.796875 169.25 C 127.097656 168.25 127.425781 167.257812 127.777344 166.273438 C 128.128906 165.289062 128.503906 164.3125 128.90625 163.347656 C 129.304688 162.382812 129.726562 161.425781 130.171875 160.480469 C 130.621094 159.535156 131.089844 158.601562 131.582031 157.679688 C 132.074219 156.757812 132.585938 155.847656 133.125 154.949219 C 133.660156 154.050781 134.21875 153.167969 134.796875 152.300781 C 135.378906 151.429688 135.980469 150.574219 136.601562 149.734375 C 137.222656 148.894531 137.867188 148.070312 138.527344 147.261719 C 139.191406 146.453125 139.871094 145.664062 140.574219 144.886719 C 141.273438 144.113281 141.992188 143.355469 142.730469 142.617188 C 143.46875 141.878906 144.226562 141.15625 145 140.453125 C 145.773438 139.75 146.5625 139.070312 147.371094 138.40625 C 148.175781 137.742188 149 137.097656 149.835938 136.476562 C 150.675781 135.851562 151.527344 135.25 152.398438 134.671875 C 153.265625 134.089844 154.148438 133.53125 155.042969 132.992188 C 155.9375 132.453125 156.84375 131.9375 157.765625 131.445312 C 158.6875 130.953125 159.617188 130.484375 160.5625 130.035156 C 161.507812 129.589844 162.460938 129.164062 163.425781 128.765625 C 164.390625 128.363281 165.363281 127.988281 166.347656 127.636719 C 167.328125 127.285156 168.320312 126.957031 169.320312 126.652344 C 170.316406 126.347656 171.324219 126.070312 172.335938 125.816406 C 173.347656 125.5625 174.367188 125.332031 175.390625 125.128906 C 176.414062 124.925781 177.441406 124.746094 178.476562 124.59375 C 179.507812 124.4375 180.542969 124.3125 181.582031 124.207031 C 182.621094 124.105469 183.664062 124.027344 184.703125 123.976562 C 185.746094 123.925781 186.789062 123.902344 187.835938 123.902344 C 188.878906 123.902344 189.921875 123.925781 190.964844 123.976562 C 192.007812 124.027344 193.046875 124.105469 194.085938 124.207031 C 195.125 124.3125 196.160156 124.4375 197.195312 124.59375 C 198.226562 124.746094 199.253906 124.925781 200.277344 125.128906 C 201.300781 125.332031 202.320312 125.5625 203.332031 125.816406 C 204.347656 126.070312 205.351562 126.347656 206.351562 126.652344 C 207.351562 126.957031 208.339844 127.285156 209.324219 127.636719 C 210.304688 127.988281 211.28125 128.363281 212.246094 128.765625 C 213.207031 129.164062 214.164062 129.589844 215.105469 130.035156 C 216.050781 130.484375 216.980469 130.953125 217.902344 131.445312 C 218.824219 131.9375 219.730469 132.453125 220.628906 132.992188 C 221.523438 133.53125 222.402344 134.089844 223.273438 134.671875 C 224.140625 135.25 224.992188 135.851562 225.832031 136.476562 C 226.671875 137.097656 227.492188 137.742188 228.300781 138.40625 C 229.105469 139.070312 229.898438 139.75 230.671875 140.453125 C 231.445312 141.15625 232.199219 141.878906 232.9375 142.617188 C 233.675781 143.355469 234.394531 144.113281 235.097656 144.886719 C 235.796875 145.664062 236.480469 146.453125 237.140625 147.261719 C 237.804688 148.070312 238.445312 148.894531 239.066406 149.734375 C 239.691406 150.574219 240.289062 151.429688 240.871094 152.300781 C 241.449219 153.167969 242.007812 154.050781 242.546875 154.949219 C 243.082031 155.847656 243.597656 156.757812 244.089844 157.679688 C 244.582031 158.601562 245.050781 159.535156 245.496094 160.480469 C 245.941406 161.425781 246.367188 162.382812 246.765625 163.347656 C 247.164062 164.3125 247.539062 165.289062 247.890625 166.273438 C 248.242188 167.257812 248.570312 168.25 248.875 169.25 C 249.175781 170.253906 249.457031 171.261719 249.707031 172.273438 C 249.960938 173.289062 250.191406 174.308594 250.394531 175.335938 C 250.597656 176.359375 250.777344 177.390625 250.929688 178.425781 C 251.082031 179.460938 251.210938 180.496094 251.3125 181.539062 C 251.414062 182.578125 251.492188 183.621094 251.542969 184.664062 C 251.59375 185.710938 251.621094 186.753906 251.621094 187.800781 Z M 251.621094 187.800781 "/>
<path style=" stroke:none;fill-rule:nonzero;fill:rgb(87.449646%,90.979004%,95.689392%);fill-opacity:1;" d="M 238.855469 187.800781 C 238.855469 189.472656 238.773438 191.144531 238.609375 192.808594 C 238.445312 194.476562 238.199219 196.128906 237.875 197.773438 C 237.546875 199.414062 237.140625 201.035156 236.65625 202.636719 C 236.171875 204.238281 235.609375 205.8125 234.96875 207.359375 C 234.332031 208.90625 233.617188 210.417969 232.828125 211.894531 C 232.042969 213.371094 231.183594 214.804688 230.253906 216.195312 C 229.328125 217.585938 228.332031 218.929688 227.273438 220.226562 C 226.210938 221.519531 225.09375 222.757812 223.910156 223.941406 C 222.730469 225.125 221.492188 226.246094 220.199219 227.308594 C 218.910156 228.371094 217.570312 229.367188 216.179688 230.296875 C 214.789062 231.226562 213.359375 232.085938 211.886719 232.875 C 210.410156 233.664062 208.902344 234.378906 207.359375 235.019531 C 205.816406 235.660156 204.242188 236.222656 202.644531 236.710938 C 201.046875 237.195312 199.425781 237.601562 197.789062 237.929688 C 196.148438 238.253906 194.5 238.5 192.835938 238.664062 C 191.171875 238.828125 189.503906 238.910156 187.835938 238.910156 C 186.164062 238.910156 184.496094 238.828125 182.832031 238.664062 C 181.171875 238.5 179.519531 238.253906 177.882812 237.929688 C 176.242188 237.601562 174.625 237.195312 173.023438 236.710938 C 171.425781 236.222656 169.855469 235.660156 168.308594 235.019531 C 166.765625 234.378906 165.257812 233.664062 163.785156 232.875 C 162.3125 232.085938 160.878906 231.226562 159.488281 230.296875 C 158.101562 229.367188 156.761719 228.371094 155.46875 227.308594 C 154.175781 226.246094 152.941406 225.125 151.757812 223.941406 C 150.578125 222.757812 149.457031 221.519531 148.394531 220.226562 C 147.335938 218.929688 146.34375 217.585938 145.414062 216.195312 C 144.484375 214.804688 143.628906 213.371094 142.839844 211.894531 C 142.050781 210.417969 141.339844 208.90625 140.699219 207.359375 C 140.058594 205.8125 139.496094 204.238281 139.011719 202.636719 C 138.527344 201.035156 138.121094 199.414062 137.796875 197.773438 C 137.46875 196.128906 137.226562 194.476562 137.0625 192.808594 C 136.898438 191.144531 136.816406 189.472656 136.816406 187.800781 C 136.816406 186.125 136.898438 184.457031 137.0625 182.789062 C 137.226562 181.125 137.46875 179.472656 137.796875 177.828125 C 138.121094 176.1875 138.527344 174.566406 139.011719 172.964844 C 139.496094 171.363281 140.058594 169.789062 140.699219 168.242188 C 141.339844 166.695312 142.050781 165.183594 142.839844 163.707031 C 143.628906 162.230469 144.484375 160.796875 145.414062 159.40625 C 146.34375 158.011719 147.335938 156.671875 148.394531 155.375 C 149.457031 154.082031 150.578125 152.84375 151.757812 151.660156 C 152.941406 150.476562 154.175781 149.355469 155.46875 148.292969 C 156.761719 147.230469 158.101562 146.234375 159.488281 145.304688 C 160.878906 144.375 162.3125 143.515625 163.785156 142.726562 C 165.257812 141.9375 166.765625 141.222656 168.308594 140.582031 C 169.855469 139.941406 171.425781 139.378906 173.023438 138.890625 C 174.625 138.40625 176.242188 138 177.882812 137.671875 C 179.519531 137.347656 181.171875 137.101562 182.832031 136.9375 C 184.496094 136.773438 186.164062 136.691406 187.835938 136.691406 C 189.503906 136.691406 191.171875 136.773438 192.835938 136.9375 C 194.5 137.101562 196.148438 137.347656 197.789062 137.671875 C 199.425781 138 201.046875 138.40625 202.644531 138.890625 C 204.242188 139.378906 205.816406 139.941406 207.359375 140.582031 C 208.902344 141.222656 210.410156 141.9375 211.886719 142.726562 C 213.359375 143.515625 214.789062 144.375 216.179688 145.304688 C 217.570312 146.234375 218.910156 147.230469 220.199219 148.292969 C 221.492188 149.355469 222.730469 150.476562 223.910156 151.660156 C 225.09375 152.84375 226.210938 154.082031 227.273438 155.375 C 228.332031 156.671875 229.328125 158.011719 230.253906 159.40625 C 231.183594 160.796875 232.042969 162.230469 232.828125 163.707031 C 233.617188 165.183594 234.332031 166.695312 234.96875 168.242188 C 235.609375 169.789062 236.171875 171.363281 236.65625 172.964844 C 237.140625 174.566406 237.546875 176.1875 237.875 177.828125 C 238.199219 179.472656 238.445312 181.125 238.609375 182.789062 C 238.773438 184.457031 238.855469 186.125 238.855469 187.800781 Z M 238.855469 187.800781 "/>
<path style=" stroke:none;fill-rule:nonzero;fill:rgb(100%,100%,100%);fill-opacity:1;" d="M 187.835938 186.113281 C 187.390625 186.113281 186.960938 186.027344 186.550781 185.851562 C 186.140625 185.679688 185.78125 185.4375 185.46875 185.117188 C 185.15625 184.800781 184.914062 184.4375 184.75 184.023438 C 184.582031 183.609375 184.503906 183.179688 184.511719 182.734375 L 184.511719 146.441406 C 184.511719 145.996094 184.59375 145.574219 184.761719 145.164062 C 184.933594 144.757812 185.171875 144.398438 185.484375 144.085938 C 185.796875 143.773438 186.15625 143.53125 186.5625 143.363281 C 186.96875 143.195312 187.394531 143.109375 187.835938 143.109375 C 188.28125 143.101562 188.707031 143.183594 189.121094 143.347656 C 189.535156 143.515625 189.898438 143.753906 190.214844 144.066406 C 190.53125 144.378906 190.777344 144.742188 190.949219 145.152344 C 191.121094 145.566406 191.207031 145.992188 191.207031 146.441406 L 191.207031 182.972656 C 191.175781 183.402344 191.070312 183.808594 190.882812 184.191406 C 190.699219 184.578125 190.449219 184.917969 190.136719 185.207031 C 189.824219 185.5 189.46875 185.722656 189.070312 185.878906 C 188.675781 186.035156 188.261719 186.113281 187.835938 186.113281 Z M 187.835938 186.113281 "/>
<path style=" stroke:none;fill-rule:nonzero;fill:rgb(2.749634%,58.428955%,100%);fill-opacity:1;" d="M 196.167969 187.800781 C 196.167969 188.347656 196.117188 188.890625 196.007812 189.429688 C 195.902344 189.96875 195.746094 190.488281 195.535156 190.996094 C 195.324219 191.503906 195.070312 191.984375 194.765625 192.4375 C 194.460938 192.894531 194.113281 193.316406 193.726562 193.703125 C 193.339844 194.09375 192.921875 194.4375 192.464844 194.742188 C 192.011719 195.046875 191.53125 195.304688 191.023438 195.515625 C 190.519531 195.722656 189.996094 195.882812 189.460938 195.988281 C 188.925781 196.097656 188.382812 196.148438 187.835938 196.148438 C 187.289062 196.148438 186.746094 196.097656 186.207031 195.988281 C 185.671875 195.882812 185.152344 195.722656 184.644531 195.515625 C 184.140625 195.304688 183.660156 195.046875 183.203125 194.742188 C 182.75 194.4375 182.328125 194.09375 181.941406 193.703125 C 181.554688 193.316406 181.207031 192.894531 180.90625 192.4375 C 180.601562 191.984375 180.34375 191.503906 180.132812 190.996094 C 179.925781 190.488281 179.765625 189.96875 179.660156 189.429688 C 179.554688 188.890625 179.5 188.347656 179.5 187.800781 C 179.5 187.253906 179.554688 186.710938 179.660156 186.171875 C 179.765625 185.632812 179.925781 185.113281 180.132812 184.605469 C 180.34375 184.097656 180.601562 183.617188 180.90625 183.160156 C 181.207031 182.707031 181.554688 182.285156 181.941406 181.898438 C 182.328125 181.507812 182.75 181.164062 183.203125 180.859375 C 183.660156 180.554688 184.140625 180.296875 184.644531 180.085938 C 185.152344 179.878906 185.671875 179.71875 186.207031 179.613281 C 186.746094 179.503906 187.289062 179.453125 187.835938 179.453125 C 188.382812 179.453125 188.925781 179.503906 189.460938 179.613281 C 189.996094 179.71875 190.519531 179.878906 191.023438 180.085938 C 191.53125 180.296875 192.011719 180.554688 192.464844 180.859375 C 192.921875 181.164062 193.339844 181.507812 193.726562 181.898438 C 194.113281 182.285156 194.460938 182.707031 194.765625 183.160156 C 195.070312 183.617188 195.324219 184.097656 195.535156 184.605469 C 195.746094 185.113281 195.902344 185.632812 196.007812 186.171875 C 196.117188 186.710938 196.167969 187.253906 196.167969 187.800781 Z M 196.167969 187.800781 "/>
<path style=" stroke:none;fill-rule:nonzero;fill:rgb(2.749634%,58.428955%,100%);fill-opacity:1;" d="M 216.742188 196.148438 L 187.835938 196.148438 L 187.835938 179.453125 L 216.742188 179.453125 C 217.285156 179.453125 217.828125 179.503906 218.363281 179.613281 C 218.898438 179.71875 219.417969 179.878906 219.921875 180.085938 C 220.425781 180.296875 220.90625 180.554688 221.359375 180.859375 C 221.8125 181.164062 222.230469 181.511719 222.617188 181.898438 C 223.003906 182.289062 223.34375 182.710938 223.648438 183.164062 C 223.949219 183.621094 224.203125 184.101562 224.410156 184.609375 C 224.617188 185.117188 224.773438 185.636719 224.875 186.175781 C 224.980469 186.710938 225.03125 187.253906 225.027344 187.800781 C 225.03125 188.347656 224.980469 188.890625 224.875 189.425781 C 224.773438 189.964844 224.617188 190.484375 224.410156 190.992188 C 224.203125 191.5 223.949219 191.980469 223.648438 192.4375 C 223.34375 192.890625 223.003906 193.3125 222.617188 193.703125 C 222.230469 194.089844 221.8125 194.4375 221.359375 194.742188 C 220.90625 195.046875 220.425781 195.304688 219.921875 195.511719 C 219.417969 195.722656 218.898438 195.882812 218.363281 195.988281 C 217.828125 196.097656 217.285156 196.148438 216.742188 196.148438 Z M 216.742188 196.148438 "/>
</g>
</svg>
